<svg width="1940" height="343" viewBox="0 0 1940 343" fill="none" xmlns="http://www.w3.org/2000/svg">
<g clip-path="url(#clip0_880_619)">
<rect width="1940" height="343" fill="white"/>
<rect x="-3.8999" width="80.3148" height="20.5514" rx="3" fill="#E14646" fill-opacity="0.3"/>
<path d="M3.75297 14V3.81818H7.19332C7.98877 3.81818 8.64171 3.95407 9.15212 4.22585C9.66254 4.49432 10.0404 4.86387 10.2856 5.33452C10.5309 5.80516 10.6535 6.34044 10.6535 6.94034C10.6535 7.54025 10.5309 8.07221 10.2856 8.53622C10.0404 9.00024 9.6642 9.36482 9.15709 9.62997C8.64999 9.89181 8.00203 10.0227 7.2132 10.0227H4.42911V8.90909H7.17343C7.71699 8.90909 8.15449 8.82955 8.48593 8.67045C8.82068 8.51136 9.06263 8.28598 9.21178 7.99432C9.36424 7.69934 9.44047 7.34801 9.44047 6.94034C9.44047 6.53267 9.36424 6.17637 9.21178 5.87145C9.05932 5.56652 8.81571 5.3312 8.48096 5.16548C8.1462 4.99645 7.70373 4.91193 7.15354 4.91193H4.98593V14H3.75297ZM8.54559 9.42614L11.0513 14H9.61945L7.15354 9.42614H8.54559ZM15.6686 14.1591C14.9328 14.1591 14.2981 13.9967 13.7645 13.6719C13.2342 13.3438 12.8249 12.8864 12.5365 12.2997C12.2515 11.7098 12.109 11.0237 12.109 10.2415C12.109 9.45928 12.2515 8.76989 12.5365 8.1733C12.8249 7.57339 13.2259 7.10606 13.7397 6.77131C14.2567 6.43324 14.8599 6.2642 15.5493 6.2642C15.947 6.2642 16.3398 6.33049 16.7276 6.46307C17.1154 6.59564 17.4684 6.81108 17.7865 7.10938C18.1047 7.40436 18.3583 7.79545 18.5472 8.28267C18.7361 8.76989 18.8306 9.36979 18.8306 10.0824V10.5795H12.9442V9.56534H17.6374C17.6374 9.13447 17.5512 8.75 17.3789 8.41193C17.2098 8.07386 16.9679 7.80705 16.653 7.61151C16.3415 7.41596 15.9736 7.31818 15.5493 7.31818C15.082 7.31818 14.6776 7.43419 14.3362 7.66619C13.9982 7.89489 13.738 8.19318 13.5557 8.56108C13.3734 8.92898 13.2823 9.32339 13.2823 9.74432V10.4205C13.2823 10.9972 13.3817 11.486 13.5806 11.8871C13.7827 12.2848 14.0628 12.5881 14.4208 12.7969C14.7787 13.0024 15.1947 13.1051 15.6686 13.1051C15.9769 13.1051 16.2553 13.062 16.5039 12.9759C16.7558 12.8864 16.9728 12.7538 17.1551 12.5781C17.3374 12.3991 17.4783 12.1771 17.5777 11.9119L18.7112 12.2301C18.5919 12.6146 18.3914 12.9527 18.1097 13.2443C17.828 13.5327 17.48 13.758 17.0657 13.9205C16.6514 14.0795 16.1857 14.1591 15.6686 14.1591ZM23.4989 14.1591C22.8625 14.1591 22.3007 13.9983 21.8135 13.6768C21.3263 13.352 20.9451 12.8946 20.6701 12.3047C20.395 11.7114 20.2574 11.0104 20.2574 10.2017C20.2574 9.39962 20.395 8.7036 20.6701 8.11364C20.9451 7.52367 21.328 7.06794 21.8185 6.74645C22.309 6.42495 22.8758 6.2642 23.5188 6.2642C24.0159 6.2642 24.4087 6.34706 24.697 6.51278C24.9887 6.67519 25.2108 6.8608 25.3632 7.0696C25.519 7.27509 25.64 7.44413 25.7262 7.5767H25.8256V3.81818H26.9989V14H25.8654V12.8267H25.7262C25.64 12.9659 25.5174 13.1416 25.3583 13.3537C25.1992 13.5625 24.9721 13.7498 24.6772 13.9155C24.3822 14.0779 23.9894 14.1591 23.4989 14.1591ZM23.658 13.1051C24.1286 13.1051 24.5264 12.9825 24.8512 12.7372C25.176 12.4886 25.4229 12.1456 25.5919 11.7081C25.761 11.2673 25.8455 10.7585 25.8455 10.1818C25.8455 9.61174 25.7626 9.11293 25.5969 8.68537C25.4312 8.2545 25.1859 7.91974 24.8611 7.68111C24.5363 7.43916 24.1353 7.31818 23.658 7.31818C23.1608 7.31818 22.7465 7.44579 22.4151 7.70099C22.087 7.95289 21.84 8.29593 21.6743 8.73011C21.5119 9.16098 21.4307 9.64489 21.4307 10.1818C21.4307 10.7254 21.5136 11.2192 21.6793 11.6634C21.8483 12.1042 22.0969 12.4555 22.425 12.7173C22.7565 12.9759 23.1675 13.1051 23.658 13.1051ZM36.5692 6.36364V7.35795H32.6118V6.36364H36.5692ZM33.7652 4.53409H34.9385V11.8125C34.9385 12.1439 34.9866 12.3925 35.0827 12.5582C35.1821 12.7206 35.3081 12.83 35.4605 12.8864C35.6163 12.9394 35.7804 12.9659 35.9527 12.9659C36.082 12.9659 36.188 12.9593 36.2709 12.946C36.3538 12.9295 36.4201 12.9162 36.4698 12.9062L36.7084 13.9602C36.6289 13.9901 36.5178 14.0199 36.3753 14.0497C36.2328 14.0829 36.0522 14.0994 35.8334 14.0994C35.502 14.0994 35.1772 14.0282 34.859 13.8857C34.5441 13.7431 34.2823 13.526 34.0735 13.2344C33.868 12.9427 33.7652 12.5748 33.7652 12.1307V4.53409ZM40.5813 14.179C40.0974 14.179 39.6582 14.0878 39.2638 13.9055C38.8694 13.7199 38.5562 13.4531 38.3242 13.1051C38.0922 12.7538 37.9762 12.3295 37.9762 11.8324C37.9762 11.3949 38.0623 11.0402 38.2347 10.7685C38.407 10.4934 38.6374 10.2779 38.9257 10.1222C39.2141 9.96638 39.5323 9.85038 39.8803 9.77415C40.2316 9.6946 40.5846 9.63163 40.9392 9.58523C41.4032 9.52557 41.7794 9.48082 42.0678 9.45099C42.3594 9.41785 42.5716 9.36316 42.7041 9.28693C42.84 9.2107 42.908 9.07812 42.908 8.8892V8.84943C42.908 8.3589 42.7737 7.97775 42.5053 7.70597C42.2401 7.43419 41.8374 7.2983 41.2972 7.2983C40.7371 7.2983 40.2979 7.42093 39.9797 7.66619C39.6615 7.91146 39.4378 8.1733 39.3085 8.4517L38.1949 8.05398C38.3938 7.58996 38.6589 7.22869 38.9904 6.97017C39.3251 6.70833 39.6897 6.52604 40.0841 6.4233C40.4818 6.31723 40.8729 6.2642 41.2574 6.2642C41.5027 6.2642 41.7844 6.29403 42.1026 6.35369C42.4241 6.41004 42.734 6.5277 43.0323 6.70668C43.3339 6.88565 43.5841 7.15578 43.783 7.51705C43.9818 7.87831 44.0813 8.36222 44.0813 8.96875V14H42.908V12.9659H42.8483C42.7688 13.1316 42.6362 13.3089 42.4506 13.4979C42.265 13.6868 42.0181 13.8475 41.7098 13.9801C41.4016 14.1127 41.0254 14.179 40.5813 14.179ZM40.7603 13.125C41.2243 13.125 41.6154 13.0339 41.9335 12.8516C42.255 12.6693 42.497 12.4339 42.6594 12.1456C42.8251 11.8572 42.908 11.554 42.908 11.2358V10.1619C42.8583 10.2216 42.7489 10.2763 42.5799 10.326C42.4141 10.3724 42.2219 10.4138 42.0032 10.4503C41.7877 10.4834 41.5773 10.5133 41.3718 10.5398C41.1696 10.563 41.0055 10.5829 40.8796 10.5994C40.5746 10.6392 40.2896 10.7038 40.0245 10.7933C39.7626 10.8795 39.5505 11.0104 39.3881 11.1861C39.229 11.3584 39.1495 11.5937 39.1495 11.892C39.1495 12.2997 39.3003 12.608 39.6019 12.8168C39.9068 13.0223 40.2929 13.125 40.7603 13.125ZM49.3052 17.0227C48.7384 17.0227 48.2512 16.9498 47.8435 16.804C47.4359 16.6615 47.0961 16.4725 46.8244 16.2372C46.5559 16.0052 46.3421 15.7566 46.183 15.4915L47.1177 14.8352C47.2237 14.9744 47.358 15.1335 47.5204 15.3125C47.6828 15.4948 47.9048 15.6522 48.1866 15.7848C48.4716 15.9207 48.8445 15.9886 49.3052 15.9886C49.9217 15.9886 50.4304 15.8395 50.8315 15.5412C51.2325 15.2429 51.433 14.7756 51.433 14.1392V12.5881H51.3336C51.2474 12.7273 51.1248 12.8996 50.9657 13.1051C50.8099 13.3073 50.5845 13.4879 50.2896 13.647C49.9979 13.8028 49.6035 13.8807 49.1063 13.8807C48.4898 13.8807 47.9363 13.7348 47.4458 13.4432C46.9586 13.1515 46.5725 12.7273 46.2874 12.1705C46.0057 11.6136 45.8648 10.9375 45.8648 10.142C45.8648 9.35985 46.0024 8.67874 46.2775 8.09872C46.5526 7.51539 46.9354 7.06463 47.4259 6.74645C47.9164 6.42495 48.4832 6.2642 49.1262 6.2642C49.6234 6.2642 50.0178 6.34706 50.3094 6.51278C50.6044 6.67519 50.8298 6.8608 50.9856 7.0696C51.1447 7.27509 51.2673 7.44413 51.3535 7.5767H51.4728V6.36364H52.6063V14.2188C52.6063 14.875 52.4572 15.4086 52.1589 15.8196C51.8639 16.2339 51.4662 16.5372 50.9657 16.7294C50.4685 16.925 49.915 17.0227 49.3052 17.0227ZM49.2654 12.8267C49.736 12.8267 50.1338 12.719 50.4586 12.5036C50.7834 12.2881 51.0303 11.9782 51.1994 11.5739C51.3684 11.1695 51.4529 10.6856 51.4529 10.1222C51.4529 9.57197 51.37 9.08641 51.2043 8.66548C51.0386 8.24455 50.7933 7.91477 50.4685 7.67614C50.1437 7.4375 49.7427 7.31818 49.2654 7.31818C48.7682 7.31818 48.3539 7.44413 48.0225 7.69602C47.6944 7.94792 47.4475 8.28598 47.2817 8.71023C47.1193 9.13447 47.0381 9.60511 47.0381 10.1222C47.0381 10.6525 47.121 11.1214 47.2867 11.5291C47.4557 11.9335 47.7043 12.2517 48.0324 12.4837C48.3639 12.7124 48.7749 12.8267 49.2654 12.8267Z" fill="#37352F"/>
<path d="M-4 0H1944V343H-4V0Z" fill="#CCFFE2"/>
<path fill-rule="evenodd" clip-rule="evenodd" d="M1943.55 237.166V343H475.379C535.532 293.689 599.915 248.214 668.419 207.173C1082.63 -40.9786 1540.57 29.3671 1943.55 237.166Z" fill="#FFECEA"/>
<path fill-rule="evenodd" clip-rule="evenodd" d="M1373.87 169.08C1373.93 113.585 1408.92 58.5251 1467.21 46.2885C1518.96 35.4248 1554.8 83.7468 1584.16 124.932C1611.76 163.654 1640.07 210.578 1611.16 248.223C1579.64 289.281 1518.29 294.69 1466.96 277.571C1415.17 260.296 1373.82 220.063 1373.87 169.08Z" fill="#0018A4"/>
<path fill-rule="evenodd" clip-rule="evenodd" d="M135.668 64.0355C166.613 63.0843 197.932 81.711 205.784 114.146C212.755 142.942 186.443 163.876 163.996 181.054C142.892 197.204 117.226 213.893 95.7253 198.369C72.2753 181.438 68.1762 147.165 76.8156 118.11C85.5343 88.7876 107.239 64.9093 135.668 64.0355Z" fill="white"/>
<rect x="-4" width="1944" height="100" fill="#0018A4"/>
<path d="M-35.4455 33.3H-34.7895L-23.1865 62H-23.8425L-25.5235 57.818H-30.9355L-29.2545 62H-29.9105L-31.5915 57.818H-44.7525L-46.4335 62H-47.0895L-45.4085 57.818H-50.8205L-52.5015 62H-53.1575L-41.5135 33.3H-40.8575L-38.1515 40.024L-35.4455 33.3ZM-42.1695 51.586H-34.1335L-38.1515 41.664L-42.1695 51.586ZM-41.1855 34.12L-48.2375 51.586H-42.8255L-38.4795 40.844L-41.1855 34.12ZM-37.8235 40.844L-33.4775 51.586H-28.0655L-35.1175 34.12L-37.8235 40.844ZM-44.4655 57.162H-31.8785L-33.8875 52.242H-42.4565L-44.4655 57.162ZM-33.2315 52.242L-31.2225 57.162H-25.8105L-27.7785 52.242H-33.2315ZM-45.1215 57.162L-43.1125 52.242H-48.5245L-50.5335 57.162H-45.1215ZM-23.4969 51.135C-23.4969 44.862 -18.4129 39.778 -12.1399 39.778C-10.2949 39.778 -8.57291 40.229 -7.01491 41.008V31.25H-6.35891V41.377C-4.06291 42.648 -2.29991 44.944 -1.43891 47.322V31.25H-0.782908V62H-1.43891V54.907C-2.25891 57.244 -4.06291 59.663 -6.35891 60.934V62H-7.01491V61.262C-8.57291 62.041 -10.2949 62.492 -12.1399 62.492C-18.4129 62.492 -23.4969 57.408 -23.4969 51.135ZM-22.8409 51.135C-22.8409 57.039 -18.0439 61.836 -12.1399 61.836C-10.2949 61.836 -8.53191 61.385 -7.01491 60.565V53.841C-7.99891 55.645 -9.92591 56.916 -12.1399 56.916C-15.3379 56.916 -17.9209 54.333 -17.9209 51.135C-17.9209 47.937 -15.3379 45.354 -12.1399 45.354C-9.92591 45.354 -7.99891 46.625 -7.01491 48.47V41.746C-8.53191 40.926 -10.2949 40.434 -12.1399 40.434C-18.0439 40.434 -22.8409 45.231 -22.8409 51.135ZM-17.2649 51.135C-17.2649 53.964 -14.9689 56.26 -12.1399 56.26C-9.26991 56.26 -7.01491 53.964 -7.01491 51.135C-7.01491 48.306 -9.26991 46.01 -12.1399 46.01C-14.9689 46.01 -17.2649 48.306 -17.2649 51.135ZM-6.35891 42.115V60.155C-3.61191 58.474 -1.43891 55.071 -1.43891 51.135C-1.43891 47.199 -3.61191 43.796 -6.35891 42.115ZM15.6161 61.016L23.1601 40.27H23.8981L15.9851 62H15.2471L12.6641 54.907L10.0811 62H9.34313L1.43013 40.27H2.16813L9.71213 61.016L12.2951 53.923L7.33413 40.27H8.07213L12.6641 52.898L17.2561 40.27H17.9941L13.0331 53.882L15.6161 61.016ZM40.8872 42.115V60.155C43.6342 58.474 45.8072 55.071 45.8072 51.135C45.8072 47.199 43.6342 43.796 40.8872 42.115ZM35.1062 39.778C36.9512 39.778 38.6732 40.229 40.2312 41.008V40.27H40.8872V41.377C43.1832 42.648 44.9462 44.944 45.8072 47.322V40.27H46.4632V62H45.8072V54.907C44.9872 57.244 43.1832 59.663 40.8872 60.934V62H40.2312V61.262C38.6732 62.041 36.9512 62.492 35.1062 62.492C28.8332 62.492 23.7492 57.408 23.7492 51.135C23.7492 44.862 28.8332 39.778 35.1062 39.778ZM35.1062 61.836C36.9512 61.836 38.7142 61.385 40.2312 60.565V53.841C39.2472 55.645 37.3202 56.916 35.1062 56.916C31.9082 56.916 29.3252 54.333 29.3252 51.135C29.3252 47.937 31.9082 45.354 35.1062 45.354C37.3202 45.354 39.2472 46.625 40.2312 48.47V41.746C38.7142 40.926 36.9512 40.434 35.1062 40.434C29.2022 40.434 24.4052 45.231 24.4052 51.135C24.4052 57.039 29.2022 61.836 35.1062 61.836ZM35.1062 56.26C37.9762 56.26 40.2312 53.964 40.2312 51.135C40.2312 48.306 37.9762 46.01 35.1062 46.01C32.2772 46.01 29.9812 48.306 29.9812 51.135C29.9812 53.964 32.2772 56.26 35.1062 56.26ZM50.6442 62V40.27H51.3002V46.461C52.2022 44.124 53.9652 42.197 56.2202 41.09V40.27H56.8762V40.762C58.0242 40.311 59.2542 40.065 60.5662 40.065C66.0192 40.065 70.4882 44.534 70.4882 49.987V62H69.8322V49.987C69.8322 44.903 65.6502 40.721 60.5662 40.721C59.2542 40.721 58.0242 41.008 56.8762 41.5V47.691C57.6552 46.461 59.0082 45.641 60.5662 45.641C62.9442 45.641 64.9122 47.609 64.9122 49.987V62H64.2562V49.987C64.2562 47.978 62.5752 46.297 60.5662 46.297C58.5572 46.297 56.8762 47.978 56.8762 49.987V62H56.2202V41.828C53.3092 43.386 51.3002 46.461 51.3002 49.987V62H50.6442ZM85.2123 45.846V46.502H84.0233C81.5223 46.502 79.3903 48.634 79.3903 51.135C79.3903 53.636 81.5223 55.768 84.0233 55.768H85.2123V56.424H84.0233C81.1533 56.424 78.7343 54.005 78.7343 51.135C78.7343 48.265 81.1533 45.846 84.0233 45.846H85.2123ZM85.2123 40.926H84.0233C78.4063 40.926 73.8143 45.518 73.8143 51.135C73.8143 56.752 78.4063 61.344 84.0233 61.344H85.2123V62H84.0233C78.0373 62 73.1583 57.121 73.1583 51.135C73.1583 45.149 78.0373 40.27 84.0233 40.27H85.2123V40.926ZM87.1711 51.135C87.1711 44.862 92.2551 39.778 98.5281 39.778C103.53 39.778 107.753 42.976 109.27 47.486L95.9451 55.563C96.7241 56.014 97.5851 56.26 98.5281 56.26C100.578 56.26 102.341 55.03 103.161 53.308L103.776 53.595C102.874 55.563 100.865 56.916 98.5281 56.916C97.3391 56.916 96.2321 56.547 95.3301 55.932L90.9021 58.638C92.8291 60.606 95.5351 61.836 98.5281 61.836C102.792 61.836 106.523 59.294 108.245 55.645L108.819 55.932C107.015 59.827 103.079 62.492 98.5281 62.492C92.2551 62.492 87.1711 57.408 87.1711 51.135ZM87.8271 51.135C87.8271 52.324 88.0321 53.431 88.3601 54.497L92.7881 51.791C92.7471 51.586 92.7471 51.34 92.7471 51.135C92.7471 47.937 95.3301 45.354 98.5281 45.354C99.7171 45.354 100.865 45.723 101.767 46.338L106.154 43.673C104.227 41.664 101.521 40.434 98.5281 40.434C92.6241 40.434 87.8271 45.231 87.8271 51.135ZM88.6061 55.112C89.0571 56.219 89.6721 57.244 90.4511 58.146L94.7561 55.522C93.8541 54.743 93.1981 53.677 92.9111 52.488L88.6061 55.112ZM93.4031 51.135V51.422L101.152 46.707C100.373 46.256 99.4711 46.01 98.5281 46.01C95.6991 46.01 93.4031 48.306 93.4031 51.135ZM93.4851 52.16C93.7311 53.349 94.4281 54.415 95.3711 55.153L103.571 50.151C103.325 48.962 102.669 47.896 101.726 47.117L93.4851 52.16ZM102.341 46.789C103.243 47.568 103.899 48.593 104.145 49.823L108.491 47.158C108.04 46.051 107.384 45.067 106.646 44.165L102.341 46.789ZM110.033 51.135C110.033 44.862 115.117 39.778 121.39 39.778C123.235 39.778 124.957 40.229 126.515 41.008V31.25H127.171V41.377C129.467 42.648 131.23 44.944 132.091 47.322V31.25H132.747V62H132.091V54.907C131.271 57.244 129.467 59.663 127.171 60.934V62H126.515V61.262C124.957 62.041 123.235 62.492 121.39 62.492C115.117 62.492 110.033 57.408 110.033 51.135ZM110.689 51.135C110.689 57.039 115.486 61.836 121.39 61.836C123.235 61.836 124.998 61.385 126.515 60.565V53.841C125.531 55.645 123.604 56.916 121.39 56.916C118.192 56.916 115.609 54.333 115.609 51.135C115.609 47.937 118.192 45.354 121.39 45.354C123.604 45.354 125.531 46.625 126.515 48.47V41.746C124.998 40.926 123.235 40.434 121.39 40.434C115.486 40.434 110.689 45.231 110.689 51.135ZM116.265 51.135C116.265 53.964 118.561 56.26 121.39 56.26C124.26 56.26 126.515 53.964 126.515 51.135C126.515 48.306 124.26 46.01 121.39 46.01C118.561 46.01 116.265 48.306 116.265 51.135ZM127.171 42.115V60.155C129.918 58.474 132.091 55.071 132.091 51.135C132.091 47.199 129.918 43.796 127.171 42.115ZM151.646 44.534V33.3H152.302V44.534H163.126V33.3H163.782V44.534H168.702V33.3H169.358V62H168.702V50.766H163.782V62H163.126V50.766H152.302V62H151.646V50.766H146.726V62H146.07V33.3H146.726V44.534H151.646ZM163.126 45.19H152.302V50.11H163.126V45.19ZM151.646 50.11V45.19H146.726V50.11H151.646ZM168.702 50.11V45.19H163.782V50.11H168.702ZM183.771 62.492C177.498 62.492 172.414 57.408 172.414 51.135C172.414 44.862 177.498 39.778 183.771 39.778C190.044 39.778 195.128 44.862 195.128 51.135C195.128 57.408 190.044 62.492 183.771 62.492ZM183.771 61.836C189.675 61.836 194.472 57.039 194.472 51.135C194.472 45.231 189.675 40.434 183.771 40.434C177.867 40.434 173.07 45.231 173.07 51.135C173.07 57.039 177.867 61.836 183.771 61.836ZM183.771 56.916C180.573 56.916 177.99 54.333 177.99 51.135C177.99 47.937 180.573 45.354 183.771 45.354C186.969 45.354 189.552 47.937 189.552 51.135C189.552 54.333 186.969 56.916 183.771 56.916ZM183.771 56.26C186.6 56.26 188.896 53.964 188.896 51.135C188.896 48.306 186.6 46.01 183.771 46.01C180.942 46.01 178.646 48.306 178.646 51.135C178.646 53.964 180.942 56.26 183.771 56.26ZM208.195 62.492C201.922 62.492 196.838 57.408 196.838 51.135C196.838 44.862 201.922 39.778 208.195 39.778C214.468 39.778 219.552 44.862 219.552 51.135C219.552 57.408 214.468 62.492 208.195 62.492ZM208.195 61.836C214.099 61.836 218.896 57.039 218.896 51.135C218.896 45.231 214.099 40.434 208.195 40.434C202.291 40.434 197.494 45.231 197.494 51.135C197.494 57.039 202.291 61.836 208.195 61.836ZM208.195 56.916C204.997 56.916 202.414 54.333 202.414 51.135C202.414 47.937 204.997 45.354 208.195 45.354C211.393 45.354 213.976 47.937 213.976 51.135C213.976 54.333 211.393 56.916 208.195 56.916ZM208.195 56.26C211.024 56.26 213.32 53.964 213.32 51.135C213.32 48.306 211.024 46.01 208.195 46.01C205.366 46.01 203.07 48.306 203.07 51.135C203.07 53.964 205.366 56.26 208.195 56.26ZM232.947 56.014L237.375 62H236.555L228.724 51.422V62H228.068V31.25H228.724V51.422L237.375 40.27H238.195L232.988 46.953L236.022 50.971L244.263 40.27H245.083L236.432 51.504L244.263 62H243.443L235.981 52.078L232.947 56.014ZM223.148 31.25V62H222.492V31.25H223.148ZM235.571 51.504L232.578 47.486L229.503 51.422L232.537 55.481L235.571 51.504ZM244.771 46.953C244.771 42.976 247.969 39.778 251.946 39.778C254.898 39.778 257.44 41.582 258.547 44.124L257.932 44.411C256.948 42.074 254.611 40.434 251.946 40.434C248.338 40.434 245.427 43.345 245.427 46.953C245.427 50.028 247.518 52.57 250.388 53.308L252.192 53.759C252.889 53.923 253.381 54.579 253.381 55.317C253.381 56.219 252.684 56.916 251.782 56.916C251.085 56.916 250.511 56.506 250.265 55.85L250.88 55.604C251.003 55.973 251.331 56.26 251.782 56.26C252.315 56.26 252.725 55.85 252.725 55.317C252.725 54.866 252.479 54.497 252.028 54.374L250.183 53.923C247.067 53.144 244.771 50.315 244.771 46.953ZM245.181 58.187L245.796 57.9C246.78 60.237 249.076 61.836 251.782 61.836C255.39 61.836 258.301 58.925 258.301 55.317C258.301 52.242 256.21 49.7 253.34 48.962L251.536 48.511C250.798 48.306 250.347 47.691 250.347 46.953C250.347 46.051 251.044 45.354 251.946 45.354C252.643 45.354 253.217 45.805 253.422 46.42L252.848 46.666C252.725 46.297 252.356 46.01 251.946 46.01C251.413 46.01 251.003 46.42 251.003 46.953C251.003 47.404 251.249 47.773 251.7 47.896L253.545 48.347C256.702 49.126 258.957 51.955 258.957 55.317C258.957 59.294 255.759 62.492 251.782 62.492C248.83 62.492 246.288 60.729 245.181 58.187ZM271.312 62V33.3H279.348C284.555 33.3 288.778 37.523 288.778 42.73C288.778 44.534 288.286 46.215 287.384 47.65C288.286 49.044 288.778 50.766 288.778 52.57C288.778 57.777 284.555 62 279.348 62H271.312ZM271.968 61.344H276.888V56.424H271.968V61.344ZM271.968 55.768H276.888V49.372H271.968V55.768ZM271.968 48.716H276.888V46.584H271.968V48.716ZM271.968 45.928H276.888V39.532H271.968V45.928ZM271.968 38.876H276.888V33.956H271.968V38.876ZM277.544 61.344H279.348C284.186 61.344 288.122 57.408 288.122 52.57C288.122 50.725 287.548 49.044 286.605 47.65C287.548 46.256 288.122 44.575 288.122 42.73C288.122 37.892 284.186 33.956 279.348 33.956H277.544V38.876H279.348C281.48 38.876 283.202 40.598 283.202 42.73C283.202 44.862 281.48 46.584 279.348 46.584H277.544V48.716H279.348C281.48 48.716 283.202 50.438 283.202 52.57C283.202 54.702 281.48 56.424 279.348 56.424H277.544V61.344ZM277.544 55.768H279.348C281.111 55.768 282.546 54.333 282.546 52.57C282.546 50.807 281.111 49.372 279.348 49.372H277.544V55.768ZM277.544 45.928H279.348C281.111 45.928 282.546 44.493 282.546 42.73C282.546 40.967 281.111 39.532 279.348 39.532H277.544V45.928ZM302.447 62.492C296.174 62.492 291.09 57.408 291.09 51.135C291.09 44.862 296.174 39.778 302.447 39.778C308.72 39.778 313.804 44.862 313.804 51.135C313.804 57.408 308.72 62.492 302.447 62.492ZM302.447 61.836C308.351 61.836 313.148 57.039 313.148 51.135C313.148 45.231 308.351 40.434 302.447 40.434C296.543 40.434 291.746 45.231 291.746 51.135C291.746 57.039 296.543 61.836 302.447 61.836ZM302.447 56.916C299.249 56.916 296.666 54.333 296.666 51.135C296.666 47.937 299.249 45.354 302.447 45.354C305.645 45.354 308.228 47.937 308.228 51.135C308.228 54.333 305.645 56.916 302.447 56.916ZM302.447 56.26C305.276 56.26 307.572 53.964 307.572 51.135C307.572 48.306 305.276 46.01 302.447 46.01C299.618 46.01 297.322 48.306 297.322 51.135C297.322 53.964 299.618 56.26 302.447 56.26ZM316.744 62V40.27H317.4V62H316.744ZM322.976 40.27V62H322.32V40.27H322.976ZM322.32 38.138V31.25H322.976V38.138H322.32ZM317.4 31.25V38.138H316.744V31.25H317.4ZM327.81 31.25V62H327.154V31.25H327.81ZM333.386 31.25V62H332.73V31.25H333.386ZM336.334 51.135C336.334 44.862 341.418 39.778 347.691 39.778C352.693 39.778 356.916 42.976 358.433 47.486L345.108 55.563C345.887 56.014 346.748 56.26 347.691 56.26C349.741 56.26 351.504 55.03 352.324 53.308L352.939 53.595C352.037 55.563 350.028 56.916 347.691 56.916C346.502 56.916 345.395 56.547 344.493 55.932L340.065 58.638C341.992 60.606 344.698 61.836 347.691 61.836C351.955 61.836 355.686 59.294 357.408 55.645L357.982 55.932C356.178 59.827 352.242 62.492 347.691 62.492C341.418 62.492 336.334 57.408 336.334 51.135ZM336.99 51.135C336.99 52.324 337.195 53.431 337.523 54.497L341.951 51.791C341.91 51.586 341.91 51.34 341.91 51.135C341.91 47.937 344.493 45.354 347.691 45.354C348.88 45.354 350.028 45.723 350.93 46.338L355.317 43.673C353.39 41.664 350.684 40.434 347.691 40.434C341.787 40.434 336.99 45.231 336.99 51.135ZM337.769 55.112C338.22 56.219 338.835 57.244 339.614 58.146L343.919 55.522C343.017 54.743 342.361 53.677 342.074 52.488L337.769 55.112ZM342.566 51.135V51.422L350.315 46.707C349.536 46.256 348.634 46.01 347.691 46.01C344.862 46.01 342.566 48.306 342.566 51.135ZM342.648 52.16C342.894 53.349 343.591 54.415 344.534 55.153L352.734 50.151C352.488 48.962 351.832 47.896 350.889 47.117L342.648 52.16ZM351.504 46.789C352.406 47.568 353.062 48.593 353.308 49.823L357.654 47.158C357.203 46.051 356.547 45.067 355.809 44.165L351.504 46.789ZM366.002 62V42.689C363.788 44.042 361.082 46.83 361.082 51.709V62H360.426V40.27H361.082V47.732C362.107 44.903 363.706 43.304 366.002 41.951V40.27H366.658V41.582C368.298 40.762 370.061 40.352 371.783 40.352V41.008C370.061 41.008 368.257 41.459 366.658 42.32V49.044C367.601 47.199 369.569 45.928 371.783 45.928V46.584C368.913 46.584 366.658 48.88 366.658 51.709V62H366.002ZM389.613 39.532V45.928H392.524C394.328 45.928 395.722 44.534 395.722 42.73C395.722 40.926 394.328 39.532 392.524 39.532H389.613ZM389.613 38.876H392.524C394.656 38.876 396.378 40.598 396.378 42.73C396.378 44.862 394.656 46.584 392.524 46.584H389.613V51.504H392.524C397.444 51.504 401.298 47.65 401.298 42.73C401.298 37.81 397.444 33.956 392.524 33.956H389.613V38.876ZM384.037 52.16V62H383.381V33.3H392.524C397.772 33.3 401.954 37.482 401.954 42.73C401.954 47.978 397.772 52.16 392.524 52.16H389.613V62H388.957V52.16H384.037ZM384.037 39.532V45.928H388.957V39.532H384.037ZM388.957 33.956H384.037V38.876H388.957V33.956ZM388.957 46.584H384.037V51.504H388.957V46.584ZM405.406 31.25V62H404.75V31.25H405.406ZM410.982 31.25V62H410.326V31.25H410.982ZM431.068 42.115V60.155C433.815 58.474 435.988 55.071 435.988 51.135C435.988 47.199 433.815 43.796 431.068 42.115ZM425.287 39.778C427.132 39.778 428.854 40.229 430.412 41.008V40.27H431.068V41.377C433.364 42.648 435.127 44.944 435.988 47.322V40.27H436.644V62H435.988V54.907C435.168 57.244 433.364 59.663 431.068 60.934V62H430.412V61.262C428.854 62.041 427.132 62.492 425.287 62.492C419.014 62.492 413.93 57.408 413.93 51.135C413.93 44.862 419.014 39.778 425.287 39.778ZM425.287 61.836C427.132 61.836 428.895 61.385 430.412 60.565V53.841C429.428 55.645 427.501 56.916 425.287 56.916C422.089 56.916 419.506 54.333 419.506 51.135C419.506 47.937 422.089 45.354 425.287 45.354C427.501 45.354 429.428 46.625 430.412 48.47V41.746C428.895 40.926 427.132 40.434 425.287 40.434C419.383 40.434 414.586 45.231 414.586 51.135C414.586 57.039 419.383 61.836 425.287 61.836ZM425.287 56.26C428.157 56.26 430.412 53.964 430.412 51.135C430.412 48.306 428.157 46.01 425.287 46.01C422.458 46.01 420.162 48.306 420.162 51.135C420.162 53.964 422.458 56.26 425.287 56.26ZM442.875 40.926H439.636V40.27H442.875V33.3H443.531V40.27H448.451V33.3H449.107V40.27H452.346V40.926H449.107V45.846H452.346V46.502H449.107V62H448.451V46.502H443.531V62H442.875V46.502H439.636V45.846H442.875V40.926ZM448.451 40.926H443.531V45.846H448.451V40.926ZM453.689 51.135C453.689 44.862 458.773 39.778 465.046 39.778C470.048 39.778 474.271 42.976 475.788 47.486L462.463 55.563C463.242 56.014 464.103 56.26 465.046 56.26C467.096 56.26 468.859 55.03 469.679 53.308L470.294 53.595C469.392 55.563 467.383 56.916 465.046 56.916C463.857 56.916 462.75 56.547 461.848 55.932L457.42 58.638C459.347 60.606 462.053 61.836 465.046 61.836C469.31 61.836 473.041 59.294 474.763 55.645L475.337 55.932C473.533 59.827 469.597 62.492 465.046 62.492C458.773 62.492 453.689 57.408 453.689 51.135ZM454.345 51.135C454.345 52.324 454.55 53.431 454.878 54.497L459.306 51.791C459.265 51.586 459.265 51.34 459.265 51.135C459.265 47.937 461.848 45.354 465.046 45.354C466.235 45.354 467.383 45.723 468.285 46.338L472.672 43.673C470.745 41.664 468.039 40.434 465.046 40.434C459.142 40.434 454.345 45.231 454.345 51.135ZM455.124 55.112C455.575 56.219 456.19 57.244 456.969 58.146L461.274 55.522C460.372 54.743 459.716 53.677 459.429 52.488L455.124 55.112ZM459.921 51.135V51.422L467.67 46.707C466.891 46.256 465.989 46.01 465.046 46.01C462.217 46.01 459.921 48.306 459.921 51.135ZM460.003 52.16C460.249 53.349 460.946 54.415 461.889 55.153L470.089 50.151C469.843 48.962 469.187 47.896 468.244 47.117L460.003 52.16ZM468.859 46.789C469.761 47.568 470.417 48.593 470.663 49.823L475.009 47.158C474.558 46.051 473.902 45.067 473.164 44.165L468.859 46.789ZM500.718 33.3H501.374L512.977 62H512.321L510.64 57.818H505.228L506.909 62H506.253L504.572 57.818H491.411L489.73 62H489.074L490.755 57.818H485.343L483.662 62H483.006L494.65 33.3H495.306L498.012 40.024L500.718 33.3ZM493.994 51.586H502.03L498.012 41.664L493.994 51.586ZM494.978 34.12L487.926 51.586H493.338L497.684 40.844L494.978 34.12ZM498.34 40.844L502.686 51.586H508.098L501.046 34.12L498.34 40.844ZM491.698 57.162H504.285L502.276 52.242H493.707L491.698 57.162ZM502.932 52.242L504.941 57.162H510.353L508.385 52.242H502.932ZM491.042 57.162L493.051 52.242H487.639L485.63 57.162H491.042ZM512.666 51.135C512.666 44.862 517.75 39.778 524.023 39.778C525.868 39.778 527.59 40.229 529.148 41.008V31.25H529.804V41.377C532.1 42.648 533.863 44.944 534.724 47.322V31.25H535.38V62H534.724V54.907C533.904 57.244 532.1 59.663 529.804 60.934V62H529.148V61.262C527.59 62.041 525.868 62.492 524.023 62.492C517.75 62.492 512.666 57.408 512.666 51.135ZM513.322 51.135C513.322 57.039 518.119 61.836 524.023 61.836C525.868 61.836 527.631 61.385 529.148 60.565V53.841C528.164 55.645 526.237 56.916 524.023 56.916C520.825 56.916 518.242 54.333 518.242 51.135C518.242 47.937 520.825 45.354 524.023 45.354C526.237 45.354 528.164 46.625 529.148 48.47V41.746C527.631 40.926 525.868 40.434 524.023 40.434C518.119 40.434 513.322 45.231 513.322 51.135ZM518.898 51.135C518.898 53.964 521.194 56.26 524.023 56.26C526.893 56.26 529.148 53.964 529.148 51.135C529.148 48.306 526.893 46.01 524.023 46.01C521.194 46.01 518.898 48.306 518.898 51.135ZM529.804 42.115V60.155C532.551 58.474 534.724 55.071 534.724 51.135C534.724 47.199 532.551 43.796 529.804 42.115ZM551.779 61.016L559.323 40.27H560.061L552.148 62H551.41L548.827 54.907L546.244 62H545.506L537.593 40.27H538.331L545.875 61.016L548.458 53.923L543.497 40.27H544.235L548.827 52.898L553.419 40.27H554.157L549.196 53.882L551.779 61.016ZM577.05 42.115V60.155C579.797 58.474 581.97 55.071 581.97 51.135C581.97 47.199 579.797 43.796 577.05 42.115ZM571.269 39.778C573.114 39.778 574.836 40.229 576.394 41.008V40.27H577.05V41.377C579.346 42.648 581.109 44.944 581.97 47.322V40.27H582.626V62H581.97V54.907C581.15 57.244 579.346 59.663 577.05 60.934V62H576.394V61.262C574.836 62.041 573.114 62.492 571.269 62.492C564.996 62.492 559.912 57.408 559.912 51.135C559.912 44.862 564.996 39.778 571.269 39.778ZM571.269 61.836C573.114 61.836 574.877 61.385 576.394 60.565V53.841C575.41 55.645 573.483 56.916 571.269 56.916C568.071 56.916 565.488 54.333 565.488 51.135C565.488 47.937 568.071 45.354 571.269 45.354C573.483 45.354 575.41 46.625 576.394 48.47V41.746C574.877 40.926 573.114 40.434 571.269 40.434C565.365 40.434 560.568 45.231 560.568 51.135C560.568 57.039 565.365 61.836 571.269 61.836ZM571.269 56.26C574.139 56.26 576.394 53.964 576.394 51.135C576.394 48.306 574.139 46.01 571.269 46.01C568.44 46.01 566.144 48.306 566.144 51.135C566.144 53.964 568.44 56.26 571.269 56.26ZM586.807 62V40.27H587.463V46.461C588.365 44.124 590.128 42.197 592.383 41.09V40.27H593.039V40.762C594.187 40.311 595.417 40.065 596.729 40.065C602.182 40.065 606.651 44.534 606.651 49.987V62H605.995V49.987C605.995 44.903 601.813 40.721 596.729 40.721C595.417 40.721 594.187 41.008 593.039 41.5V47.691C593.818 46.461 595.171 45.641 596.729 45.641C599.107 45.641 601.075 47.609 601.075 49.987V62H600.419V49.987C600.419 47.978 598.738 46.297 596.729 46.297C594.72 46.297 593.039 47.978 593.039 49.987V62H592.383V41.828C589.472 43.386 587.463 46.461 587.463 49.987V62H586.807ZM621.375 45.846V46.502H620.186C617.685 46.502 615.553 48.634 615.553 51.135C615.553 53.636 617.685 55.768 620.186 55.768H621.375V56.424H620.186C617.316 56.424 614.897 54.005 614.897 51.135C614.897 48.265 617.316 45.846 620.186 45.846H621.375ZM621.375 40.926H620.186C614.569 40.926 609.977 45.518 609.977 51.135C609.977 56.752 614.569 61.344 620.186 61.344H621.375V62H620.186C614.2 62 609.321 57.121 609.321 51.135C609.321 45.149 614.2 40.27 620.186 40.27H621.375V40.926ZM623.334 51.135C623.334 44.862 628.418 39.778 634.691 39.778C639.693 39.778 643.916 42.976 645.433 47.486L632.108 55.563C632.887 56.014 633.748 56.26 634.691 56.26C636.741 56.26 638.504 55.03 639.324 53.308L639.939 53.595C639.037 55.563 637.028 56.916 634.691 56.916C633.502 56.916 632.395 56.547 631.493 55.932L627.065 58.638C628.992 60.606 631.698 61.836 634.691 61.836C638.955 61.836 642.686 59.294 644.408 55.645L644.982 55.932C643.178 59.827 639.242 62.492 634.691 62.492C628.418 62.492 623.334 57.408 623.334 51.135ZM623.99 51.135C623.99 52.324 624.195 53.431 624.523 54.497L628.951 51.791C628.91 51.586 628.91 51.34 628.91 51.135C628.91 47.937 631.493 45.354 634.691 45.354C635.88 45.354 637.028 45.723 637.93 46.338L642.317 43.673C640.39 41.664 637.684 40.434 634.691 40.434C628.787 40.434 623.99 45.231 623.99 51.135ZM624.769 55.112C625.22 56.219 625.835 57.244 626.614 58.146L630.919 55.522C630.017 54.743 629.361 53.677 629.074 52.488L624.769 55.112ZM629.566 51.135V51.422L637.315 46.707C636.536 46.256 635.634 46.01 634.691 46.01C631.862 46.01 629.566 48.306 629.566 51.135ZM629.648 52.16C629.894 53.349 630.591 54.415 631.534 55.153L639.734 50.151C639.488 48.962 638.832 47.896 637.889 47.117L629.648 52.16ZM638.504 46.789C639.406 47.568 640.062 48.593 640.308 49.823L644.654 47.158C644.203 46.051 643.547 45.067 642.809 44.165L638.504 46.789ZM646.196 51.135C646.196 44.862 651.28 39.778 657.553 39.778C659.398 39.778 661.12 40.229 662.678 41.008V31.25H663.334V41.377C665.63 42.648 667.393 44.944 668.254 47.322V31.25H668.91V62H668.254V54.907C667.434 57.244 665.63 59.663 663.334 60.934V62H662.678V61.262C661.12 62.041 659.398 62.492 657.553 62.492C651.28 62.492 646.196 57.408 646.196 51.135ZM646.852 51.135C646.852 57.039 651.649 61.836 657.553 61.836C659.398 61.836 661.161 61.385 662.678 60.565V53.841C661.694 55.645 659.767 56.916 657.553 56.916C654.355 56.916 651.772 54.333 651.772 51.135C651.772 47.937 654.355 45.354 657.553 45.354C659.767 45.354 661.694 46.625 662.678 48.47V41.746C661.161 40.926 659.398 40.434 657.553 40.434C651.649 40.434 646.852 45.231 646.852 51.135ZM652.428 51.135C652.428 53.964 654.724 56.26 657.553 56.26C660.423 56.26 662.678 53.964 662.678 51.135C662.678 48.306 660.423 46.01 657.553 46.01C654.724 46.01 652.428 48.306 652.428 51.135ZM663.334 42.115V60.155C666.081 58.474 668.254 55.071 668.254 51.135C668.254 47.199 666.081 43.796 663.334 42.115ZM687.809 44.534V33.3H688.465V44.534H699.289V33.3H699.945V44.534H704.865V33.3H705.521V62H704.865V50.766H699.945V62H699.289V50.766H688.465V62H687.809V50.766H682.889V62H682.233V33.3H682.889V44.534H687.809ZM699.289 45.19H688.465V50.11H699.289V45.19ZM687.809 50.11V45.19H682.889V50.11H687.809ZM704.865 50.11V45.19H699.945V50.11H704.865ZM719.934 62.492C713.661 62.492 708.577 57.408 708.577 51.135C708.577 44.862 713.661 39.778 719.934 39.778C726.207 39.778 731.291 44.862 731.291 51.135C731.291 57.408 726.207 62.492 719.934 62.492ZM719.934 61.836C725.838 61.836 730.635 57.039 730.635 51.135C730.635 45.231 725.838 40.434 719.934 40.434C714.03 40.434 709.233 45.231 709.233 51.135C709.233 57.039 714.03 61.836 719.934 61.836ZM719.934 56.916C716.736 56.916 714.153 54.333 714.153 51.135C714.153 47.937 716.736 45.354 719.934 45.354C723.132 45.354 725.715 47.937 725.715 51.135C725.715 54.333 723.132 56.916 719.934 56.916ZM719.934 56.26C722.763 56.26 725.059 53.964 725.059 51.135C725.059 48.306 722.763 46.01 719.934 46.01C717.105 46.01 714.809 48.306 714.809 51.135C714.809 53.964 717.105 56.26 719.934 56.26ZM744.358 62.492C738.085 62.492 733.001 57.408 733.001 51.135C733.001 44.862 738.085 39.778 744.358 39.778C750.631 39.778 755.715 44.862 755.715 51.135C755.715 57.408 750.631 62.492 744.358 62.492ZM744.358 61.836C750.262 61.836 755.059 57.039 755.059 51.135C755.059 45.231 750.262 40.434 744.358 40.434C738.454 40.434 733.657 45.231 733.657 51.135C733.657 57.039 738.454 61.836 744.358 61.836ZM744.358 56.916C741.16 56.916 738.577 54.333 738.577 51.135C738.577 47.937 741.16 45.354 744.358 45.354C747.556 45.354 750.139 47.937 750.139 51.135C750.139 54.333 747.556 56.916 744.358 56.916ZM744.358 56.26C747.187 56.26 749.483 53.964 749.483 51.135C749.483 48.306 747.187 46.01 744.358 46.01C741.529 46.01 739.233 48.306 739.233 51.135C739.233 53.964 741.529 56.26 744.358 56.26ZM769.11 56.014L773.538 62H772.718L764.887 51.422V62H764.231V31.25H764.887V51.422L773.538 40.27H774.358L769.151 46.953L772.185 50.971L780.426 40.27H781.246L772.595 51.504L780.426 62H779.606L772.144 52.078L769.11 56.014ZM759.311 31.25V62H758.655V31.25H759.311ZM771.734 51.504L768.741 47.486L765.666 51.422L768.7 55.481L771.734 51.504ZM780.934 46.953C780.934 42.976 784.132 39.778 788.109 39.778C791.061 39.778 793.603 41.582 794.71 44.124L794.095 44.411C793.111 42.074 790.774 40.434 788.109 40.434C784.501 40.434 781.59 43.345 781.59 46.953C781.59 50.028 783.681 52.57 786.551 53.308L788.355 53.759C789.052 53.923 789.544 54.579 789.544 55.317C789.544 56.219 788.847 56.916 787.945 56.916C787.248 56.916 786.674 56.506 786.428 55.85L787.043 55.604C787.166 55.973 787.494 56.26 787.945 56.26C788.478 56.26 788.888 55.85 788.888 55.317C788.888 54.866 788.642 54.497 788.191 54.374L786.346 53.923C783.23 53.144 780.934 50.315 780.934 46.953ZM781.344 58.187L781.959 57.9C782.943 60.237 785.239 61.836 787.945 61.836C791.553 61.836 794.464 58.925 794.464 55.317C794.464 52.242 792.373 49.7 789.503 48.962L787.699 48.511C786.961 48.306 786.51 47.691 786.51 46.953C786.51 46.051 787.207 45.354 788.109 45.354C788.806 45.354 789.38 45.805 789.585 46.42L789.011 46.666C788.888 46.297 788.519 46.01 788.109 46.01C787.576 46.01 787.166 46.42 787.166 46.953C787.166 47.404 787.412 47.773 787.863 47.896L789.708 48.347C792.865 49.126 795.12 51.955 795.12 55.317C795.12 59.294 791.922 62.492 787.945 62.492C784.993 62.492 782.451 60.729 781.344 58.187ZM807.475 62V33.3H815.511C820.718 33.3 824.941 37.523 824.941 42.73C824.941 44.534 824.449 46.215 823.547 47.65C824.449 49.044 824.941 50.766 824.941 52.57C824.941 57.777 820.718 62 815.511 62H807.475ZM808.131 61.344H813.051V56.424H808.131V61.344ZM808.131 55.768H813.051V49.372H808.131V55.768ZM808.131 48.716H813.051V46.584H808.131V48.716ZM808.131 45.928H813.051V39.532H808.131V45.928ZM808.131 38.876H813.051V33.956H808.131V38.876ZM813.707 61.344H815.511C820.349 61.344 824.285 57.408 824.285 52.57C824.285 50.725 823.711 49.044 822.768 47.65C823.711 46.256 824.285 44.575 824.285 42.73C824.285 37.892 820.349 33.956 815.511 33.956H813.707V38.876H815.511C817.643 38.876 819.365 40.598 819.365 42.73C819.365 44.862 817.643 46.584 815.511 46.584H813.707V48.716H815.511C817.643 48.716 819.365 50.438 819.365 52.57C819.365 54.702 817.643 56.424 815.511 56.424H813.707V61.344ZM813.707 55.768H815.511C817.274 55.768 818.709 54.333 818.709 52.57C818.709 50.807 817.274 49.372 815.511 49.372H813.707V55.768ZM813.707 45.928H815.511C817.274 45.928 818.709 44.493 818.709 42.73C818.709 40.967 817.274 39.532 815.511 39.532H813.707V45.928ZM838.61 62.492C832.337 62.492 827.253 57.408 827.253 51.135C827.253 44.862 832.337 39.778 838.61 39.778C844.883 39.778 849.967 44.862 849.967 51.135C849.967 57.408 844.883 62.492 838.61 62.492ZM838.61 61.836C844.514 61.836 849.311 57.039 849.311 51.135C849.311 45.231 844.514 40.434 838.61 40.434C832.706 40.434 827.909 45.231 827.909 51.135C827.909 57.039 832.706 61.836 838.61 61.836ZM838.61 56.916C835.412 56.916 832.829 54.333 832.829 51.135C832.829 47.937 835.412 45.354 838.61 45.354C841.808 45.354 844.391 47.937 844.391 51.135C844.391 54.333 841.808 56.916 838.61 56.916ZM838.61 56.26C841.439 56.26 843.735 53.964 843.735 51.135C843.735 48.306 841.439 46.01 838.61 46.01C835.781 46.01 833.485 48.306 833.485 51.135C833.485 53.964 835.781 56.26 838.61 56.26ZM852.907 62V40.27H853.563V62H852.907ZM859.139 40.27V62H858.483V40.27H859.139ZM858.483 38.138V31.25H859.139V38.138H858.483ZM853.563 31.25V38.138H852.907V31.25H853.563ZM863.973 31.25V62H863.317V31.25H863.973ZM869.549 31.25V62H868.893V31.25H869.549ZM872.497 51.135C872.497 44.862 877.581 39.778 883.854 39.778C888.856 39.778 893.079 42.976 894.596 47.486L881.271 55.563C882.05 56.014 882.911 56.26 883.854 56.26C885.904 56.26 887.667 55.03 888.487 53.308L889.102 53.595C888.2 55.563 886.191 56.916 883.854 56.916C882.665 56.916 881.558 56.547 880.656 55.932L876.228 58.638C878.155 60.606 880.861 61.836 883.854 61.836C888.118 61.836 891.849 59.294 893.571 55.645L894.145 55.932C892.341 59.827 888.405 62.492 883.854 62.492C877.581 62.492 872.497 57.408 872.497 51.135ZM873.153 51.135C873.153 52.324 873.358 53.431 873.686 54.497L878.114 51.791C878.073 51.586 878.073 51.34 878.073 51.135C878.073 47.937 880.656 45.354 883.854 45.354C885.043 45.354 886.191 45.723 887.093 46.338L891.48 43.673C889.553 41.664 886.847 40.434 883.854 40.434C877.95 40.434 873.153 45.231 873.153 51.135ZM873.932 55.112C874.383 56.219 874.998 57.244 875.777 58.146L880.082 55.522C879.18 54.743 878.524 53.677 878.237 52.488L873.932 55.112ZM878.729 51.135V51.422L886.478 46.707C885.699 46.256 884.797 46.01 883.854 46.01C881.025 46.01 878.729 48.306 878.729 51.135ZM878.811 52.16C879.057 53.349 879.754 54.415 880.697 55.153L888.897 50.151C888.651 48.962 887.995 47.896 887.052 47.117L878.811 52.16ZM887.667 46.789C888.569 47.568 889.225 48.593 889.471 49.823L893.817 47.158C893.366 46.051 892.71 45.067 891.972 44.165L887.667 46.789ZM902.166 62V42.689C899.952 44.042 897.246 46.83 897.246 51.709V62H896.59V40.27H897.246V47.732C898.271 44.903 899.87 43.304 902.166 41.951V40.27H902.822V41.582C904.462 40.762 906.225 40.352 907.947 40.352V41.008C906.225 41.008 904.421 41.459 902.822 42.32V49.044C903.765 47.199 905.733 45.928 907.947 45.928V46.584C905.077 46.584 902.822 48.88 902.822 51.709V62H902.166ZM925.776 39.532V45.928H928.687C930.491 45.928 931.885 44.534 931.885 42.73C931.885 40.926 930.491 39.532 928.687 39.532H925.776ZM925.776 38.876H928.687C930.819 38.876 932.541 40.598 932.541 42.73C932.541 44.862 930.819 46.584 928.687 46.584H925.776V51.504H928.687C933.607 51.504 937.461 47.65 937.461 42.73C937.461 37.81 933.607 33.956 928.687 33.956H925.776V38.876ZM920.2 52.16V62H919.544V33.3H928.687C933.935 33.3 938.117 37.482 938.117 42.73C938.117 47.978 933.935 52.16 928.687 52.16H925.776V62H925.12V52.16H920.2ZM920.2 39.532V45.928H925.12V39.532H920.2ZM925.12 33.956H920.2V38.876H925.12V33.956ZM925.12 46.584H920.2V51.504H925.12V46.584ZM941.569 31.25V62H940.913V31.25H941.569ZM947.145 31.25V62H946.489V31.25H947.145ZM967.231 42.115V60.155C969.978 58.474 972.151 55.071 972.151 51.135C972.151 47.199 969.978 43.796 967.231 42.115ZM961.45 39.778C963.295 39.778 965.017 40.229 966.575 41.008V40.27H967.231V41.377C969.527 42.648 971.29 44.944 972.151 47.322V40.27H972.807V62H972.151V54.907C971.331 57.244 969.527 59.663 967.231 60.934V62H966.575V61.262C965.017 62.041 963.295 62.492 961.45 62.492C955.177 62.492 950.093 57.408 950.093 51.135C950.093 44.862 955.177 39.778 961.45 39.778ZM961.45 61.836C963.295 61.836 965.058 61.385 966.575 60.565V53.841C965.591 55.645 963.664 56.916 961.45 56.916C958.252 56.916 955.669 54.333 955.669 51.135C955.669 47.937 958.252 45.354 961.45 45.354C963.664 45.354 965.591 46.625 966.575 48.47V41.746C965.058 40.926 963.295 40.434 961.45 40.434C955.546 40.434 950.749 45.231 950.749 51.135C950.749 57.039 955.546 61.836 961.45 61.836ZM961.45 56.26C964.32 56.26 966.575 53.964 966.575 51.135C966.575 48.306 964.32 46.01 961.45 46.01C958.621 46.01 956.325 48.306 956.325 51.135C956.325 53.964 958.621 56.26 961.45 56.26ZM979.038 40.926H975.799V40.27H979.038V33.3H979.694V40.27H984.614V33.3H985.27V40.27H988.509V40.926H985.27V45.846H988.509V46.502H985.27V62H984.614V46.502H979.694V62H979.038V46.502H975.799V45.846H979.038V40.926ZM984.614 40.926H979.694V45.846H984.614V40.926ZM989.852 51.135C989.852 44.862 994.936 39.778 1001.21 39.778C1006.21 39.778 1010.43 42.976 1011.95 47.486L998.626 55.563C999.405 56.014 1000.27 56.26 1001.21 56.26C1003.26 56.26 1005.02 55.03 1005.84 53.308L1006.46 53.595C1005.55 55.563 1003.55 56.916 1001.21 56.916C1000.02 56.916 998.913 56.547 998.011 55.932L993.583 58.638C995.51 60.606 998.216 61.836 1001.21 61.836C1005.47 61.836 1009.2 59.294 1010.93 55.645L1011.5 55.932C1009.7 59.827 1005.76 62.492 1001.21 62.492C994.936 62.492 989.852 57.408 989.852 51.135ZM990.508 51.135C990.508 52.324 990.713 53.431 991.041 54.497L995.469 51.791C995.428 51.586 995.428 51.34 995.428 51.135C995.428 47.937 998.011 45.354 1001.21 45.354C1002.4 45.354 1003.55 45.723 1004.45 46.338L1008.83 43.673C1006.91 41.664 1004.2 40.434 1001.21 40.434C995.305 40.434 990.508 45.231 990.508 51.135ZM991.287 55.112C991.738 56.219 992.353 57.244 993.132 58.146L997.437 55.522C996.535 54.743 995.879 53.677 995.592 52.488L991.287 55.112ZM996.084 51.135V51.422L1003.83 46.707C1003.05 46.256 1002.15 46.01 1001.21 46.01C998.38 46.01 996.084 48.306 996.084 51.135ZM996.166 52.16C996.412 53.349 997.109 54.415 998.052 55.153L1006.25 50.151C1006.01 48.962 1005.35 47.896 1004.41 47.117L996.166 52.16ZM1005.02 46.789C1005.92 47.568 1006.58 48.593 1006.83 49.823L1011.17 47.158C1010.72 46.051 1010.06 45.067 1009.33 44.165L1005.02 46.789ZM1028.67 33.3H1029.33L1040.93 62H1040.28L1038.59 57.818H1033.18L1034.86 62H1034.21L1032.53 57.818H1019.37L1017.68 62H1017.03L1018.71 57.818H1013.3L1011.62 62H1010.96L1022.6 33.3H1023.26L1025.97 40.024L1028.67 33.3ZM1021.95 51.586H1029.98L1025.97 41.664L1021.95 51.586ZM1022.93 34.12L1015.88 51.586H1021.29L1025.64 40.844L1022.93 34.12ZM1026.29 40.844L1030.64 51.586H1036.05L1029 34.12L1026.29 40.844ZM1019.65 57.162H1032.24L1030.23 52.242H1021.66L1019.65 57.162ZM1030.89 52.242L1032.9 57.162H1038.31L1036.34 52.242H1030.89ZM1019 57.162L1021.01 52.242H1015.59L1013.58 57.162H1019ZM1040.62 51.135C1040.62 44.862 1045.71 39.778 1051.98 39.778C1053.82 39.778 1055.55 40.229 1057.1 41.008V31.25H1057.76V41.377C1060.06 42.648 1061.82 44.944 1062.68 47.322V31.25H1063.34V62H1062.68V54.907C1061.86 57.244 1060.06 59.663 1057.76 60.934V62H1057.1V61.262C1055.55 62.041 1053.82 62.492 1051.98 62.492C1045.71 62.492 1040.62 57.408 1040.62 51.135ZM1041.28 51.135C1041.28 57.039 1046.07 61.836 1051.98 61.836C1053.82 61.836 1055.59 61.385 1057.1 60.565V53.841C1056.12 55.645 1054.19 56.916 1051.98 56.916C1048.78 56.916 1046.2 54.333 1046.2 51.135C1046.2 47.937 1048.78 45.354 1051.98 45.354C1054.19 45.354 1056.12 46.625 1057.1 48.47V41.746C1055.59 40.926 1053.82 40.434 1051.98 40.434C1046.07 40.434 1041.28 45.231 1041.28 51.135ZM1046.85 51.135C1046.85 53.964 1049.15 56.26 1051.98 56.26C1054.85 56.26 1057.1 53.964 1057.1 51.135C1057.1 48.306 1054.85 46.01 1051.98 46.01C1049.15 46.01 1046.85 48.306 1046.85 51.135ZM1057.76 42.115V60.155C1060.51 58.474 1062.68 55.071 1062.68 51.135C1062.68 47.199 1060.51 43.796 1057.76 42.115ZM1079.73 61.016L1087.28 40.27H1088.02L1080.1 62H1079.37L1076.78 54.907L1074.2 62H1073.46L1065.55 40.27H1066.29L1073.83 61.016L1076.41 53.923L1071.45 40.27H1072.19L1076.78 52.898L1081.37 40.27H1082.11L1077.15 53.882L1079.73 61.016ZM1105.01 42.115V60.155C1107.75 58.474 1109.93 55.071 1109.93 51.135C1109.93 47.199 1107.75 43.796 1105.01 42.115ZM1099.22 39.778C1101.07 39.778 1102.79 40.229 1104.35 41.008V40.27H1105.01V41.377C1107.3 42.648 1109.06 44.944 1109.93 47.322V40.27H1110.58V62H1109.93V54.907C1109.11 57.244 1107.3 59.663 1105.01 60.934V62H1104.35V61.262C1102.79 62.041 1101.07 62.492 1099.22 62.492C1092.95 62.492 1087.87 57.408 1087.87 51.135C1087.87 44.862 1092.95 39.778 1099.22 39.778ZM1099.22 61.836C1101.07 61.836 1102.83 61.385 1104.35 60.565V53.841C1103.37 55.645 1101.44 56.916 1099.22 56.916C1096.03 56.916 1093.44 54.333 1093.44 51.135C1093.44 47.937 1096.03 45.354 1099.22 45.354C1101.44 45.354 1103.37 46.625 1104.35 48.47V41.746C1102.83 40.926 1101.07 40.434 1099.22 40.434C1093.32 40.434 1088.52 45.231 1088.52 51.135C1088.52 57.039 1093.32 61.836 1099.22 61.836ZM1099.22 56.26C1102.09 56.26 1104.35 53.964 1104.35 51.135C1104.35 48.306 1102.09 46.01 1099.22 46.01C1096.4 46.01 1094.1 48.306 1094.1 51.135C1094.1 53.964 1096.4 56.26 1099.22 56.26ZM1114.76 62V40.27H1115.42V46.461C1116.32 44.124 1118.08 42.197 1120.34 41.09V40.27H1120.99V40.762C1122.14 40.311 1123.37 40.065 1124.68 40.065C1130.14 40.065 1134.61 44.534 1134.61 49.987V62H1133.95V49.987C1133.95 44.903 1129.77 40.721 1124.68 40.721C1123.37 40.721 1122.14 41.008 1120.99 41.5V47.691C1121.77 46.461 1123.13 45.641 1124.68 45.641C1127.06 45.641 1129.03 47.609 1129.03 49.987V62H1128.37V49.987C1128.37 47.978 1126.69 46.297 1124.68 46.297C1122.68 46.297 1120.99 47.978 1120.99 49.987V62H1120.34V41.828C1117.43 43.386 1115.42 46.461 1115.42 49.987V62H1114.76ZM1149.33 45.846V46.502H1148.14C1145.64 46.502 1143.51 48.634 1143.51 51.135C1143.51 53.636 1145.64 55.768 1148.14 55.768H1149.33V56.424H1148.14C1145.27 56.424 1142.85 54.005 1142.85 51.135C1142.85 48.265 1145.27 45.846 1148.14 45.846H1149.33ZM1149.33 40.926H1148.14C1142.52 40.926 1137.93 45.518 1137.93 51.135C1137.93 56.752 1142.52 61.344 1148.14 61.344H1149.33V62H1148.14C1142.16 62 1137.28 57.121 1137.28 51.135C1137.28 45.149 1142.16 40.27 1148.14 40.27H1149.33V40.926ZM1151.29 51.135C1151.29 44.862 1156.37 39.778 1162.65 39.778C1167.65 39.778 1171.87 42.976 1173.39 47.486L1160.06 55.563C1160.84 56.014 1161.7 56.26 1162.65 56.26C1164.7 56.26 1166.46 55.03 1167.28 53.308L1167.89 53.595C1166.99 55.563 1164.98 56.916 1162.65 56.916C1161.46 56.916 1160.35 56.547 1159.45 55.932L1155.02 58.638C1156.95 60.606 1159.65 61.836 1162.65 61.836C1166.91 61.836 1170.64 59.294 1172.36 55.645L1172.94 55.932C1171.13 59.827 1167.2 62.492 1162.65 62.492C1156.37 62.492 1151.29 57.408 1151.29 51.135ZM1151.95 51.135C1151.95 52.324 1152.15 53.431 1152.48 54.497L1156.91 51.791C1156.87 51.586 1156.87 51.34 1156.87 51.135C1156.87 47.937 1159.45 45.354 1162.65 45.354C1163.84 45.354 1164.98 45.723 1165.89 46.338L1170.27 43.673C1168.35 41.664 1165.64 40.434 1162.65 40.434C1156.74 40.434 1151.95 45.231 1151.95 51.135ZM1152.72 55.112C1153.18 56.219 1153.79 57.244 1154.57 58.146L1158.87 55.522C1157.97 54.743 1157.32 53.677 1157.03 52.488L1152.72 55.112ZM1157.52 51.135V51.422L1165.27 46.707C1164.49 46.256 1163.59 46.01 1162.65 46.01C1159.82 46.01 1157.52 48.306 1157.52 51.135ZM1157.6 52.16C1157.85 53.349 1158.55 54.415 1159.49 55.153L1167.69 50.151C1167.44 48.962 1166.79 47.896 1165.84 47.117L1157.6 52.16ZM1166.46 46.789C1167.36 47.568 1168.02 48.593 1168.26 49.823L1172.61 47.158C1172.16 46.051 1171.5 45.067 1170.76 44.165L1166.46 46.789ZM1174.15 51.135C1174.15 44.862 1179.24 39.778 1185.51 39.778C1187.35 39.778 1189.08 40.229 1190.63 41.008V31.25H1191.29V41.377C1193.59 42.648 1195.35 44.944 1196.21 47.322V31.25H1196.87V62H1196.21V54.907C1195.39 57.244 1193.59 59.663 1191.29 60.934V62H1190.63V61.262C1189.08 62.041 1187.35 62.492 1185.51 62.492C1179.24 62.492 1174.15 57.408 1174.15 51.135ZM1174.81 51.135C1174.81 57.039 1179.6 61.836 1185.51 61.836C1187.35 61.836 1189.12 61.385 1190.63 60.565V53.841C1189.65 55.645 1187.72 56.916 1185.51 56.916C1182.31 56.916 1179.73 54.333 1179.73 51.135C1179.73 47.937 1182.31 45.354 1185.51 45.354C1187.72 45.354 1189.65 46.625 1190.63 48.47V41.746C1189.12 40.926 1187.35 40.434 1185.51 40.434C1179.6 40.434 1174.81 45.231 1174.81 51.135ZM1180.38 51.135C1180.38 53.964 1182.68 56.26 1185.51 56.26C1188.38 56.26 1190.63 53.964 1190.63 51.135C1190.63 48.306 1188.38 46.01 1185.51 46.01C1182.68 46.01 1180.38 48.306 1180.38 51.135ZM1191.29 42.115V60.155C1194.04 58.474 1196.21 55.071 1196.21 51.135C1196.21 47.199 1194.04 43.796 1191.29 42.115ZM1215.76 44.534V33.3H1216.42V44.534H1227.24V33.3H1227.9V44.534H1232.82V33.3H1233.48V62H1232.82V50.766H1227.9V62H1227.24V50.766H1216.42V62H1215.76V50.766H1210.84V62H1210.19V33.3H1210.84V44.534H1215.76ZM1227.24 45.19H1216.42V50.11H1227.24V45.19ZM1215.76 50.11V45.19H1210.84V50.11H1215.76ZM1232.82 50.11V45.19H1227.9V50.11H1232.82ZM1247.89 62.492C1241.62 62.492 1236.53 57.408 1236.53 51.135C1236.53 44.862 1241.62 39.778 1247.89 39.778C1254.16 39.778 1259.25 44.862 1259.25 51.135C1259.25 57.408 1254.16 62.492 1247.89 62.492ZM1247.89 61.836C1253.79 61.836 1258.59 57.039 1258.59 51.135C1258.59 45.231 1253.79 40.434 1247.89 40.434C1241.99 40.434 1237.19 45.231 1237.19 51.135C1237.19 57.039 1241.99 61.836 1247.89 61.836ZM1247.89 56.916C1244.69 56.916 1242.11 54.333 1242.11 51.135C1242.11 47.937 1244.69 45.354 1247.89 45.354C1251.09 45.354 1253.67 47.937 1253.67 51.135C1253.67 54.333 1251.09 56.916 1247.89 56.916ZM1247.89 56.26C1250.72 56.26 1253.01 53.964 1253.01 51.135C1253.01 48.306 1250.72 46.01 1247.89 46.01C1245.06 46.01 1242.76 48.306 1242.76 51.135C1242.76 53.964 1245.06 56.26 1247.89 56.26ZM1272.31 62.492C1266.04 62.492 1260.96 57.408 1260.96 51.135C1260.96 44.862 1266.04 39.778 1272.31 39.778C1278.59 39.778 1283.67 44.862 1283.67 51.135C1283.67 57.408 1278.59 62.492 1272.31 62.492ZM1272.31 61.836C1278.22 61.836 1283.01 57.039 1283.01 51.135C1283.01 45.231 1278.22 40.434 1272.31 40.434C1266.41 40.434 1261.61 45.231 1261.61 51.135C1261.61 57.039 1266.41 61.836 1272.31 61.836ZM1272.31 56.916C1269.12 56.916 1266.53 54.333 1266.53 51.135C1266.53 47.937 1269.12 45.354 1272.31 45.354C1275.51 45.354 1278.09 47.937 1278.09 51.135C1278.09 54.333 1275.51 56.916 1272.31 56.916ZM1272.31 56.26C1275.14 56.26 1277.44 53.964 1277.44 51.135C1277.44 48.306 1275.14 46.01 1272.31 46.01C1269.48 46.01 1267.19 48.306 1267.19 51.135C1267.19 53.964 1269.48 56.26 1272.31 56.26ZM1297.07 56.014L1301.49 62H1300.67L1292.84 51.422V62H1292.19V31.25H1292.84V51.422L1301.49 40.27H1302.31L1297.11 46.953L1300.14 50.971L1308.38 40.27H1309.2L1300.55 51.504L1308.38 62H1307.56L1300.1 52.078L1297.07 56.014ZM1287.27 31.25V62H1286.61V31.25H1287.27ZM1299.69 51.504L1296.7 47.486L1293.62 51.422L1296.66 55.481L1299.69 51.504ZM1308.89 46.953C1308.89 42.976 1312.09 39.778 1316.06 39.778C1319.02 39.778 1321.56 41.582 1322.66 44.124L1322.05 44.411C1321.07 42.074 1318.73 40.434 1316.06 40.434C1312.46 40.434 1309.54 43.345 1309.54 46.953C1309.54 50.028 1311.64 52.57 1314.51 53.308L1316.31 53.759C1317.01 53.923 1317.5 54.579 1317.5 55.317C1317.5 56.219 1316.8 56.916 1315.9 56.916C1315.2 56.916 1314.63 56.506 1314.38 55.85L1315 55.604C1315.12 55.973 1315.45 56.26 1315.9 56.26C1316.43 56.26 1316.84 55.85 1316.84 55.317C1316.84 54.866 1316.6 54.497 1316.15 54.374L1314.3 53.923C1311.18 53.144 1308.89 50.315 1308.89 46.953ZM1309.3 58.187L1309.91 57.9C1310.9 60.237 1313.19 61.836 1315.9 61.836C1319.51 61.836 1322.42 58.925 1322.42 55.317C1322.42 52.242 1320.33 49.7 1317.46 48.962L1315.65 48.511C1314.92 48.306 1314.46 47.691 1314.46 46.953C1314.46 46.051 1315.16 45.354 1316.06 45.354C1316.76 45.354 1317.33 45.805 1317.54 46.42L1316.97 46.666C1316.84 46.297 1316.47 46.01 1316.06 46.01C1315.53 46.01 1315.12 46.42 1315.12 46.953C1315.12 47.404 1315.37 47.773 1315.82 47.896L1317.66 48.347C1320.82 49.126 1323.07 51.955 1323.07 55.317C1323.07 59.294 1319.88 62.492 1315.9 62.492C1312.95 62.492 1310.41 60.729 1309.3 58.187ZM1335.43 62V33.3H1343.47C1348.67 33.3 1352.9 37.523 1352.9 42.73C1352.9 44.534 1352.4 46.215 1351.5 47.65C1352.4 49.044 1352.9 50.766 1352.9 52.57C1352.9 57.777 1348.67 62 1343.47 62H1335.43ZM1336.09 61.344H1341.01V56.424H1336.09V61.344ZM1336.09 55.768H1341.01V49.372H1336.09V55.768ZM1336.09 48.716H1341.01V46.584H1336.09V48.716ZM1336.09 45.928H1341.01V39.532H1336.09V45.928ZM1336.09 38.876H1341.01V33.956H1336.09V38.876ZM1341.66 61.344H1343.47C1348.3 61.344 1352.24 57.408 1352.24 52.57C1352.24 50.725 1351.67 49.044 1350.72 47.65C1351.67 46.256 1352.24 44.575 1352.24 42.73C1352.24 37.892 1348.3 33.956 1343.47 33.956H1341.66V38.876H1343.47C1345.6 38.876 1347.32 40.598 1347.32 42.73C1347.32 44.862 1345.6 46.584 1343.47 46.584H1341.66V48.716H1343.47C1345.6 48.716 1347.32 50.438 1347.32 52.57C1347.32 54.702 1345.6 56.424 1343.47 56.424H1341.66V61.344ZM1341.66 55.768H1343.47C1345.23 55.768 1346.66 54.333 1346.66 52.57C1346.66 50.807 1345.23 49.372 1343.47 49.372H1341.66V55.768ZM1341.66 45.928H1343.47C1345.23 45.928 1346.66 44.493 1346.66 42.73C1346.66 40.967 1345.23 39.532 1343.47 39.532H1341.66V45.928ZM1366.57 62.492C1360.29 62.492 1355.21 57.408 1355.21 51.135C1355.21 44.862 1360.29 39.778 1366.57 39.778C1372.84 39.778 1377.92 44.862 1377.92 51.135C1377.92 57.408 1372.84 62.492 1366.57 62.492ZM1366.57 61.836C1372.47 61.836 1377.27 57.039 1377.27 51.135C1377.27 45.231 1372.47 40.434 1366.57 40.434C1360.66 40.434 1355.86 45.231 1355.86 51.135C1355.86 57.039 1360.66 61.836 1366.57 61.836ZM1366.57 56.916C1363.37 56.916 1360.78 54.333 1360.78 51.135C1360.78 47.937 1363.37 45.354 1366.57 45.354C1369.76 45.354 1372.35 47.937 1372.35 51.135C1372.35 54.333 1369.76 56.916 1366.57 56.916ZM1366.57 56.26C1369.39 56.26 1371.69 53.964 1371.69 51.135C1371.69 48.306 1369.39 46.01 1366.57 46.01C1363.74 46.01 1361.44 48.306 1361.44 51.135C1361.44 53.964 1363.74 56.26 1366.57 56.26ZM1380.86 62V40.27H1381.52V62H1380.86ZM1387.09 40.27V62H1386.44V40.27H1387.09ZM1386.44 38.138V31.25H1387.09V38.138H1386.44ZM1381.52 31.25V38.138H1380.86V31.25H1381.52ZM1391.93 31.25V62H1391.27V31.25H1391.93ZM1397.5 31.25V62H1396.85V31.25H1397.5ZM1400.45 51.135C1400.45 44.862 1405.54 39.778 1411.81 39.778C1416.81 39.778 1421.03 42.976 1422.55 47.486L1409.23 55.563C1410.01 56.014 1410.87 56.26 1411.81 56.26C1413.86 56.26 1415.62 55.03 1416.44 53.308L1417.06 53.595C1416.16 55.563 1414.15 56.916 1411.81 56.916C1410.62 56.916 1409.51 56.547 1408.61 55.932L1404.18 58.638C1406.11 60.606 1408.82 61.836 1411.81 61.836C1416.07 61.836 1419.8 59.294 1421.53 55.645L1422.1 55.932C1420.3 59.827 1416.36 62.492 1411.81 62.492C1405.54 62.492 1400.45 57.408 1400.45 51.135ZM1401.11 51.135C1401.11 52.324 1401.31 53.431 1401.64 54.497L1406.07 51.791C1406.03 51.586 1406.03 51.34 1406.03 51.135C1406.03 47.937 1408.61 45.354 1411.81 45.354C1413 45.354 1414.15 45.723 1415.05 46.338L1419.44 43.673C1417.51 41.664 1414.8 40.434 1411.81 40.434C1405.91 40.434 1401.11 45.231 1401.11 51.135ZM1401.89 55.112C1402.34 56.219 1402.95 57.244 1403.73 58.146L1408.04 55.522C1407.14 54.743 1406.48 53.677 1406.19 52.488L1401.89 55.112ZM1406.68 51.135V51.422L1414.43 46.707C1413.65 46.256 1412.75 46.01 1411.81 46.01C1408.98 46.01 1406.68 48.306 1406.68 51.135ZM1406.77 52.16C1407.01 53.349 1407.71 54.415 1408.65 55.153L1416.85 50.151C1416.61 48.962 1415.95 47.896 1415.01 47.117L1406.77 52.16ZM1415.62 46.789C1416.52 47.568 1417.18 48.593 1417.43 49.823L1421.77 47.158C1421.32 46.051 1420.67 45.067 1419.93 44.165L1415.62 46.789ZM1430.12 62V42.689C1427.91 44.042 1425.2 46.83 1425.2 51.709V62H1424.54V40.27H1425.2V47.732C1426.23 44.903 1427.82 43.304 1430.12 41.951V40.27H1430.78V41.582C1432.42 40.762 1434.18 40.352 1435.9 40.352V41.008C1434.18 41.008 1432.38 41.459 1430.78 42.32V49.044C1431.72 47.199 1433.69 45.928 1435.9 45.928V46.584C1433.03 46.584 1430.78 48.88 1430.78 51.709V62H1430.12ZM1453.73 39.532V45.928H1456.64C1458.45 45.928 1459.84 44.534 1459.84 42.73C1459.84 40.926 1458.45 39.532 1456.64 39.532H1453.73ZM1453.73 38.876H1456.64C1458.77 38.876 1460.5 40.598 1460.5 42.73C1460.5 44.862 1458.77 46.584 1456.64 46.584H1453.73V51.504H1456.64C1461.56 51.504 1465.42 47.65 1465.42 42.73C1465.42 37.81 1461.56 33.956 1456.64 33.956H1453.73V38.876ZM1448.16 52.16V62H1447.5V33.3H1456.64C1461.89 33.3 1466.07 37.482 1466.07 42.73C1466.07 47.978 1461.89 52.16 1456.64 52.16H1453.73V62H1453.08V52.16H1448.16ZM1448.16 39.532V45.928H1453.08V39.532H1448.16ZM1453.08 33.956H1448.16V38.876H1453.08V33.956ZM1453.08 46.584H1448.16V51.504H1453.08V46.584ZM1469.52 31.25V62H1468.87V31.25H1469.52ZM1475.1 31.25V62H1474.44V31.25H1475.1ZM1495.19 42.115V60.155C1497.93 58.474 1500.11 55.071 1500.11 51.135C1500.11 47.199 1497.93 43.796 1495.19 42.115ZM1489.41 39.778C1491.25 39.778 1492.97 40.229 1494.53 41.008V40.27H1495.19V41.377C1497.48 42.648 1499.25 44.944 1500.11 47.322V40.27H1500.76V62H1500.11V54.907C1499.29 57.244 1497.48 59.663 1495.19 60.934V62H1494.53V61.262C1492.97 62.041 1491.25 62.492 1489.41 62.492C1483.13 62.492 1478.05 57.408 1478.05 51.135C1478.05 44.862 1483.13 39.778 1489.41 39.778ZM1489.41 61.836C1491.25 61.836 1493.01 61.385 1494.53 60.565V53.841C1493.55 55.645 1491.62 56.916 1489.41 56.916C1486.21 56.916 1483.62 54.333 1483.62 51.135C1483.62 47.937 1486.21 45.354 1489.41 45.354C1491.62 45.354 1493.55 46.625 1494.53 48.47V41.746C1493.01 40.926 1491.25 40.434 1489.41 40.434C1483.5 40.434 1478.7 45.231 1478.7 51.135C1478.7 57.039 1483.5 61.836 1489.41 61.836ZM1489.41 56.26C1492.28 56.26 1494.53 53.964 1494.53 51.135C1494.53 48.306 1492.28 46.01 1489.41 46.01C1486.58 46.01 1484.28 48.306 1484.28 51.135C1484.28 53.964 1486.58 56.26 1489.41 56.26ZM1506.99 40.926H1503.75V40.27H1506.99V33.3H1507.65V40.27H1512.57V33.3H1513.23V40.27H1516.46V40.926H1513.23V45.846H1516.46V46.502H1513.23V62H1512.57V46.502H1507.65V62H1506.99V46.502H1503.75V45.846H1506.99V40.926ZM1512.57 40.926H1507.65V45.846H1512.57V40.926ZM1517.81 51.135C1517.81 44.862 1522.89 39.778 1529.16 39.778C1534.17 39.778 1538.39 42.976 1539.91 47.486L1526.58 55.563C1527.36 56.014 1528.22 56.26 1529.16 56.26C1531.21 56.26 1532.98 55.03 1533.8 53.308L1534.41 53.595C1533.51 55.563 1531.5 56.916 1529.16 56.916C1527.97 56.916 1526.87 56.547 1525.97 55.932L1521.54 58.638C1523.46 60.606 1526.17 61.836 1529.16 61.836C1533.43 61.836 1537.16 59.294 1538.88 55.645L1539.45 55.932C1537.65 59.827 1533.71 62.492 1529.16 62.492C1522.89 62.492 1517.81 57.408 1517.81 51.135ZM1518.46 51.135C1518.46 52.324 1518.67 53.431 1519 54.497L1523.42 51.791C1523.38 51.586 1523.38 51.34 1523.38 51.135C1523.38 47.937 1525.97 45.354 1529.16 45.354C1530.35 45.354 1531.5 45.723 1532.4 46.338L1536.79 43.673C1534.86 41.664 1532.16 40.434 1529.16 40.434C1523.26 40.434 1518.46 45.231 1518.46 51.135ZM1519.24 55.112C1519.69 56.219 1520.31 57.244 1521.09 58.146L1525.39 55.522C1524.49 54.743 1523.83 53.677 1523.55 52.488L1519.24 55.112ZM1524.04 51.135V51.422L1531.79 46.707C1531.01 46.256 1530.11 46.01 1529.16 46.01C1526.33 46.01 1524.04 48.306 1524.04 51.135ZM1524.12 52.16C1524.37 53.349 1525.06 54.415 1526.01 55.153L1534.21 50.151C1533.96 48.962 1533.3 47.896 1532.36 47.117L1524.12 52.16ZM1532.98 46.789C1533.88 47.568 1534.53 48.593 1534.78 49.823L1539.13 47.158C1538.68 46.051 1538.02 45.067 1537.28 44.165L1532.98 46.789ZM1556.63 33.3H1557.28L1568.89 62H1568.23L1566.55 57.818H1561.14L1562.82 62H1562.16L1560.48 57.818H1547.32L1545.64 62H1544.98L1546.66 57.818H1541.25L1539.57 62H1538.92L1550.56 33.3H1551.22L1553.92 40.024L1556.63 33.3ZM1549.9 51.586H1557.94L1553.92 41.664L1549.9 51.586ZM1550.89 34.12L1543.84 51.586H1549.25L1553.59 40.844L1550.89 34.12ZM1554.25 40.844L1558.6 51.586H1564.01L1556.96 34.12L1554.25 40.844ZM1547.61 57.162H1560.19L1558.19 52.242H1549.62L1547.61 57.162ZM1558.84 52.242L1560.85 57.162H1566.26L1564.29 52.242H1558.84ZM1546.95 57.162L1548.96 52.242H1543.55L1541.54 57.162H1546.95ZM1568.58 51.135C1568.58 44.862 1573.66 39.778 1579.93 39.778C1581.78 39.778 1583.5 40.229 1585.06 41.008V31.25H1585.71V41.377C1588.01 42.648 1589.77 44.944 1590.63 47.322V31.25H1591.29V62H1590.63V54.907C1589.81 57.244 1588.01 59.663 1585.71 60.934V62H1585.06V61.262C1583.5 62.041 1581.78 62.492 1579.93 62.492C1573.66 62.492 1568.58 57.408 1568.58 51.135ZM1569.23 51.135C1569.23 57.039 1574.03 61.836 1579.93 61.836C1581.78 61.836 1583.54 61.385 1585.06 60.565V53.841C1584.07 55.645 1582.15 56.916 1579.93 56.916C1576.74 56.916 1574.15 54.333 1574.15 51.135C1574.15 47.937 1576.74 45.354 1579.93 45.354C1582.15 45.354 1584.07 46.625 1585.06 48.47V41.746C1583.54 40.926 1581.78 40.434 1579.93 40.434C1574.03 40.434 1569.23 45.231 1569.23 51.135ZM1574.81 51.135C1574.81 53.964 1577.1 56.26 1579.93 56.26C1582.8 56.26 1585.06 53.964 1585.06 51.135C1585.06 48.306 1582.8 46.01 1579.93 46.01C1577.1 46.01 1574.81 48.306 1574.81 51.135ZM1585.71 42.115V60.155C1588.46 58.474 1590.63 55.071 1590.63 51.135C1590.63 47.199 1588.46 43.796 1585.71 42.115ZM1607.69 61.016L1615.23 40.27H1615.97L1608.06 62H1607.32L1604.74 54.907L1602.15 62H1601.42L1593.5 40.27H1594.24L1601.79 61.016L1604.37 53.923L1599.41 40.27H1600.15L1604.74 52.898L1609.33 40.27H1610.07L1605.11 53.882L1607.69 61.016ZM1632.96 42.115V60.155C1635.71 58.474 1637.88 55.071 1637.88 51.135C1637.88 47.199 1635.71 43.796 1632.96 42.115ZM1627.18 39.778C1629.02 39.778 1630.75 40.229 1632.3 41.008V40.27H1632.96V41.377C1635.26 42.648 1637.02 44.944 1637.88 47.322V40.27H1638.54V62H1637.88V54.907C1637.06 57.244 1635.26 59.663 1632.96 60.934V62H1632.3V61.262C1630.75 62.041 1629.02 62.492 1627.18 62.492C1620.91 62.492 1615.82 57.408 1615.82 51.135C1615.82 44.862 1620.91 39.778 1627.18 39.778ZM1627.18 61.836C1629.02 61.836 1630.79 61.385 1632.3 60.565V53.841C1631.32 55.645 1629.39 56.916 1627.18 56.916C1623.98 56.916 1621.4 54.333 1621.4 51.135C1621.4 47.937 1623.98 45.354 1627.18 45.354C1629.39 45.354 1631.32 46.625 1632.3 48.47V41.746C1630.79 40.926 1629.02 40.434 1627.18 40.434C1621.28 40.434 1616.48 45.231 1616.48 51.135C1616.48 57.039 1621.28 61.836 1627.18 61.836ZM1627.18 56.26C1630.05 56.26 1632.3 53.964 1632.3 51.135C1632.3 48.306 1630.05 46.01 1627.18 46.01C1624.35 46.01 1622.05 48.306 1622.05 51.135C1622.05 53.964 1624.35 56.26 1627.18 56.26ZM1642.72 62V40.27H1643.37V46.461C1644.28 44.124 1646.04 42.197 1648.29 41.09V40.27H1648.95V40.762C1650.1 40.311 1651.33 40.065 1652.64 40.065C1658.09 40.065 1662.56 44.534 1662.56 49.987V62H1661.91V49.987C1661.91 44.903 1657.72 40.721 1652.64 40.721C1651.33 40.721 1650.1 41.008 1648.95 41.5V47.691C1649.73 46.461 1651.08 45.641 1652.64 45.641C1655.02 45.641 1656.99 47.609 1656.99 49.987V62H1656.33V49.987C1656.33 47.978 1654.65 46.297 1652.64 46.297C1650.63 46.297 1648.95 47.978 1648.95 49.987V62H1648.29V41.828C1645.38 43.386 1643.37 46.461 1643.37 49.987V62H1642.72ZM1677.29 45.846V46.502H1676.1C1673.6 46.502 1671.46 48.634 1671.46 51.135C1671.46 53.636 1673.6 55.768 1676.1 55.768H1677.29V56.424H1676.1C1673.23 56.424 1670.81 54.005 1670.81 51.135C1670.81 48.265 1673.23 45.846 1676.1 45.846H1677.29ZM1677.29 40.926H1676.1C1670.48 40.926 1665.89 45.518 1665.89 51.135C1665.89 56.752 1670.48 61.344 1676.1 61.344H1677.29V62H1676.1C1670.11 62 1665.23 57.121 1665.23 51.135C1665.23 45.149 1670.11 40.27 1676.1 40.27H1677.29V40.926ZM1679.24 51.135C1679.24 44.862 1684.33 39.778 1690.6 39.778C1695.6 39.778 1699.83 42.976 1701.34 47.486L1688.02 55.563C1688.8 56.014 1689.66 56.26 1690.6 56.26C1692.65 56.26 1694.41 55.03 1695.23 53.308L1695.85 53.595C1694.95 55.563 1692.94 56.916 1690.6 56.916C1689.41 56.916 1688.31 56.547 1687.4 55.932L1682.98 58.638C1684.9 60.606 1687.61 61.836 1690.6 61.836C1694.87 61.836 1698.6 59.294 1700.32 55.645L1700.89 55.932C1699.09 59.827 1695.15 62.492 1690.6 62.492C1684.33 62.492 1679.24 57.408 1679.24 51.135ZM1679.9 51.135C1679.9 52.324 1680.11 53.431 1680.43 54.497L1684.86 51.791C1684.82 51.586 1684.82 51.34 1684.82 51.135C1684.82 47.937 1687.4 45.354 1690.6 45.354C1691.79 45.354 1692.94 45.723 1693.84 46.338L1698.23 43.673C1696.3 41.664 1693.59 40.434 1690.6 40.434C1684.7 40.434 1679.9 45.231 1679.9 51.135ZM1680.68 55.112C1681.13 56.219 1681.75 57.244 1682.52 58.146L1686.83 55.522C1685.93 54.743 1685.27 53.677 1684.98 52.488L1680.68 55.112ZM1685.48 51.135V51.422L1693.23 46.707C1692.45 46.256 1691.54 46.01 1690.6 46.01C1687.77 46.01 1685.48 48.306 1685.48 51.135ZM1685.56 52.16C1685.8 53.349 1686.5 54.415 1687.44 55.153L1695.64 50.151C1695.4 48.962 1694.74 47.896 1693.8 47.117L1685.56 52.16ZM1694.41 46.789C1695.32 47.568 1695.97 48.593 1696.22 49.823L1700.56 47.158C1700.11 46.051 1699.46 45.067 1698.72 44.165L1694.41 46.789ZM1702.11 51.135C1702.11 44.862 1707.19 39.778 1713.46 39.778C1715.31 39.778 1717.03 40.229 1718.59 41.008V31.25H1719.24V41.377C1721.54 42.648 1723.3 44.944 1724.16 47.322V31.25H1724.82V62H1724.16V54.907C1723.34 57.244 1721.54 59.663 1719.24 60.934V62H1718.59V61.262C1717.03 62.041 1715.31 62.492 1713.46 62.492C1707.19 62.492 1702.11 57.408 1702.11 51.135ZM1702.76 51.135C1702.76 57.039 1707.56 61.836 1713.46 61.836C1715.31 61.836 1717.07 61.385 1718.59 60.565V53.841C1717.6 55.645 1715.68 56.916 1713.46 56.916C1710.27 56.916 1707.68 54.333 1707.68 51.135C1707.68 47.937 1710.27 45.354 1713.46 45.354C1715.68 45.354 1717.6 46.625 1718.59 48.47V41.746C1717.07 40.926 1715.31 40.434 1713.46 40.434C1707.56 40.434 1702.76 45.231 1702.76 51.135ZM1708.34 51.135C1708.34 53.964 1710.63 56.26 1713.46 56.26C1716.33 56.26 1718.59 53.964 1718.59 51.135C1718.59 48.306 1716.33 46.01 1713.46 46.01C1710.63 46.01 1708.34 48.306 1708.34 51.135ZM1719.24 42.115V60.155C1721.99 58.474 1724.16 55.071 1724.16 51.135C1724.16 47.199 1721.99 43.796 1719.24 42.115ZM1743.72 44.534V33.3H1744.38V44.534H1755.2V33.3H1755.86V44.534H1760.78V33.3H1761.43V62H1760.78V50.766H1755.86V62H1755.2V50.766H1744.38V62H1743.72V50.766H1738.8V62H1738.14V33.3H1738.8V44.534H1743.72ZM1755.2 45.19H1744.38V50.11H1755.2V45.19ZM1743.72 50.11V45.19H1738.8V50.11H1743.72ZM1760.78 50.11V45.19H1755.86V50.11H1760.78ZM1775.84 62.492C1769.57 62.492 1764.49 57.408 1764.49 51.135C1764.49 44.862 1769.57 39.778 1775.84 39.778C1782.12 39.778 1787.2 44.862 1787.2 51.135C1787.2 57.408 1782.12 62.492 1775.84 62.492ZM1775.84 61.836C1781.75 61.836 1786.55 57.039 1786.55 51.135C1786.55 45.231 1781.75 40.434 1775.84 40.434C1769.94 40.434 1765.14 45.231 1765.14 51.135C1765.14 57.039 1769.94 61.836 1775.84 61.836ZM1775.84 56.916C1772.65 56.916 1770.06 54.333 1770.06 51.135C1770.06 47.937 1772.65 45.354 1775.84 45.354C1779.04 45.354 1781.63 47.937 1781.63 51.135C1781.63 54.333 1779.04 56.916 1775.84 56.916ZM1775.84 56.26C1778.67 56.26 1780.97 53.964 1780.97 51.135C1780.97 48.306 1778.67 46.01 1775.84 46.01C1773.02 46.01 1770.72 48.306 1770.72 51.135C1770.72 53.964 1773.02 56.26 1775.84 56.26ZM1800.27 62.492C1794 62.492 1788.91 57.408 1788.91 51.135C1788.91 44.862 1794 39.778 1800.27 39.778C1806.54 39.778 1811.63 44.862 1811.63 51.135C1811.63 57.408 1806.54 62.492 1800.27 62.492ZM1800.27 61.836C1806.17 61.836 1810.97 57.039 1810.97 51.135C1810.97 45.231 1806.17 40.434 1800.27 40.434C1794.36 40.434 1789.57 45.231 1789.57 51.135C1789.57 57.039 1794.36 61.836 1800.27 61.836ZM1800.27 56.916C1797.07 56.916 1794.49 54.333 1794.49 51.135C1794.49 47.937 1797.07 45.354 1800.27 45.354C1803.47 45.354 1806.05 47.937 1806.05 51.135C1806.05 54.333 1803.47 56.916 1800.27 56.916ZM1800.27 56.26C1803.1 56.26 1805.39 53.964 1805.39 51.135C1805.39 48.306 1803.1 46.01 1800.27 46.01C1797.44 46.01 1795.14 48.306 1795.14 51.135C1795.14 53.964 1797.44 56.26 1800.27 56.26ZM1825.02 56.014L1829.45 62H1828.63L1820.8 51.422V62H1820.14V31.25H1820.8V51.422L1829.45 40.27H1830.27L1825.06 46.953L1828.1 50.971L1836.34 40.27H1837.16L1828.51 51.504L1836.34 62H1835.52L1828.05 52.078L1825.02 56.014ZM1815.22 31.25V62H1814.57V31.25H1815.22ZM1827.64 51.504L1824.65 47.486L1821.58 51.422L1824.61 55.481L1827.64 51.504ZM1836.84 46.953C1836.84 42.976 1840.04 39.778 1844.02 39.778C1846.97 39.778 1849.51 41.582 1850.62 44.124L1850 44.411C1849.02 42.074 1846.68 40.434 1844.02 40.434C1840.41 40.434 1837.5 43.345 1837.5 46.953C1837.5 50.028 1839.59 52.57 1842.46 53.308L1844.26 53.759C1844.96 53.923 1845.45 54.579 1845.45 55.317C1845.45 56.219 1844.76 56.916 1843.85 56.916C1843.16 56.916 1842.58 56.506 1842.34 55.85L1842.95 55.604C1843.08 55.973 1843.4 56.26 1843.85 56.26C1844.39 56.26 1844.8 55.85 1844.8 55.317C1844.8 54.866 1844.55 54.497 1844.1 54.374L1842.26 53.923C1839.14 53.144 1836.84 50.315 1836.84 46.953ZM1837.25 58.187L1837.87 57.9C1838.85 60.237 1841.15 61.836 1843.85 61.836C1847.46 61.836 1850.37 58.925 1850.37 55.317C1850.37 52.242 1848.28 49.7 1845.41 48.962L1843.61 48.511C1842.87 48.306 1842.42 47.691 1842.42 46.953C1842.42 46.051 1843.12 45.354 1844.02 45.354C1844.72 45.354 1845.29 45.805 1845.49 46.42L1844.92 46.666C1844.8 46.297 1844.43 46.01 1844.02 46.01C1843.49 46.01 1843.08 46.42 1843.08 46.953C1843.08 47.404 1843.32 47.773 1843.77 47.896L1845.62 48.347C1848.77 49.126 1851.03 51.955 1851.03 55.317C1851.03 59.294 1847.83 62.492 1843.85 62.492C1840.9 62.492 1838.36 60.729 1837.25 58.187ZM1863.39 62V33.3H1871.42C1876.63 33.3 1880.85 37.523 1880.85 42.73C1880.85 44.534 1880.36 46.215 1879.46 47.65C1880.36 49.044 1880.85 50.766 1880.85 52.57C1880.85 57.777 1876.63 62 1871.42 62H1863.39ZM1864.04 61.344H1868.96V56.424H1864.04V61.344ZM1864.04 55.768H1868.96V49.372H1864.04V55.768ZM1864.04 48.716H1868.96V46.584H1864.04V48.716ZM1864.04 45.928H1868.96V39.532H1864.04V45.928ZM1864.04 38.876H1868.96V33.956H1864.04V38.876ZM1869.62 61.344H1871.42C1876.26 61.344 1880.2 57.408 1880.2 52.57C1880.2 50.725 1879.62 49.044 1878.68 47.65C1879.62 46.256 1880.2 44.575 1880.2 42.73C1880.2 37.892 1876.26 33.956 1871.42 33.956H1869.62V38.876H1871.42C1873.55 38.876 1875.28 40.598 1875.28 42.73C1875.28 44.862 1873.55 46.584 1871.42 46.584H1869.62V48.716H1871.42C1873.55 48.716 1875.28 50.438 1875.28 52.57C1875.28 54.702 1873.55 56.424 1871.42 56.424H1869.62V61.344ZM1869.62 55.768H1871.42C1873.18 55.768 1874.62 54.333 1874.62 52.57C1874.62 50.807 1873.18 49.372 1871.42 49.372H1869.62V55.768ZM1869.62 45.928H1871.42C1873.18 45.928 1874.62 44.493 1874.62 42.73C1874.62 40.967 1873.18 39.532 1871.42 39.532H1869.62V45.928ZM1894.52 62.492C1888.25 62.492 1883.16 57.408 1883.16 51.135C1883.16 44.862 1888.25 39.778 1894.52 39.778C1900.79 39.778 1905.88 44.862 1905.88 51.135C1905.88 57.408 1900.79 62.492 1894.52 62.492ZM1894.52 61.836C1900.42 61.836 1905.22 57.039 1905.22 51.135C1905.22 45.231 1900.42 40.434 1894.52 40.434C1888.62 40.434 1883.82 45.231 1883.82 51.135C1883.82 57.039 1888.62 61.836 1894.52 61.836ZM1894.52 56.916C1891.32 56.916 1888.74 54.333 1888.74 51.135C1888.74 47.937 1891.32 45.354 1894.52 45.354C1897.72 45.354 1900.3 47.937 1900.3 51.135C1900.3 54.333 1897.72 56.916 1894.52 56.916ZM1894.52 56.26C1897.35 56.26 1899.65 53.964 1899.65 51.135C1899.65 48.306 1897.35 46.01 1894.52 46.01C1891.69 46.01 1889.4 48.306 1889.4 51.135C1889.4 53.964 1891.69 56.26 1894.52 56.26ZM1908.82 62V40.27H1909.47V62H1908.82ZM1915.05 40.27V62H1914.39V40.27H1915.05ZM1914.39 38.138V31.25H1915.05V38.138H1914.39ZM1909.47 31.25V38.138H1908.82V31.25H1909.47ZM1919.88 31.25V62H1919.23V31.25H1919.88ZM1925.46 31.25V62H1924.8V31.25H1925.46ZM1928.41 51.135C1928.41 44.862 1933.49 39.778 1939.76 39.778C1944.77 39.778 1948.99 42.976 1950.51 47.486L1937.18 55.563C1937.96 56.014 1938.82 56.26 1939.76 56.26C1941.81 56.26 1943.58 55.03 1944.4 53.308L1945.01 53.595C1944.11 55.563 1942.1 56.916 1939.76 56.916C1938.58 56.916 1937.47 56.547 1936.57 55.932L1932.14 58.638C1934.07 60.606 1936.77 61.836 1939.76 61.836C1944.03 61.836 1947.76 59.294 1949.48 55.645L1950.06 55.932C1948.25 59.827 1944.32 62.492 1939.76 62.492C1933.49 62.492 1928.41 57.408 1928.41 51.135ZM1929.06 51.135C1929.06 52.324 1929.27 53.431 1929.6 54.497L1934.02 51.791C1933.98 51.586 1933.98 51.34 1933.98 51.135C1933.98 47.937 1936.57 45.354 1939.76 45.354C1940.95 45.354 1942.1 45.723 1943 46.338L1947.39 43.673C1945.46 41.664 1942.76 40.434 1939.76 40.434C1933.86 40.434 1929.06 45.231 1929.06 51.135ZM1929.84 55.112C1930.29 56.219 1930.91 57.244 1931.69 58.146L1935.99 55.522C1935.09 54.743 1934.43 53.677 1934.15 52.488L1929.84 55.112ZM1934.64 51.135V51.422L1942.39 46.707C1941.61 46.256 1940.71 46.01 1939.76 46.01C1936.94 46.01 1934.64 48.306 1934.64 51.135ZM1934.72 52.16C1934.97 53.349 1935.66 54.415 1936.61 55.153L1944.81 50.151C1944.56 48.962 1943.91 47.896 1942.96 47.117L1934.72 52.16ZM1943.58 46.789C1944.48 47.568 1945.14 48.593 1945.38 49.823L1949.73 47.158C1949.28 46.051 1948.62 45.067 1947.88 44.165L1943.58 46.789ZM1958.08 62V42.689C1955.86 44.042 1953.16 46.83 1953.16 51.709V62H1952.5V40.27H1953.16V47.732C1954.18 44.903 1955.78 43.304 1958.08 41.951V40.27H1958.73V41.582C1960.37 40.762 1962.13 40.352 1963.86 40.352V41.008C1962.13 41.008 1960.33 41.459 1958.73 42.32V49.044C1959.67 47.199 1961.64 45.928 1963.86 45.928V46.584C1960.99 46.584 1958.73 48.88 1958.73 51.709V62H1958.08Z" fill="white"/>
</g>
<defs>
<clipPath id="clip0_880_619">
<rect width="1940" height="343" fill="white"/>
</clipPath>
</defs>
</svg>
